<svg version="1.1" xmlns="http://www.w3.org/2000/svg" xmlns:xlink="http://www.w3.org/1999/xlink" width="754" height="1512"><defs/><g><g transform="translate(-86,-6) scale(1,1)"><path fill="#ffffff" stroke="none" d="M 128.40935031960228 97.68 C 128.40935031960228 92.886167936 132.29519264454774 89 137.088623046875 89 C 141.88205344920226 89 145.76789577414772 92.886167936 145.76789577414772 97.68 C 145.76789577414772 102.473832064 141.88205344920226 106.36 137.088623046875 106.36 C 132.29519264454774 106.36 128.40935031960228 102.473832064 128.40935031960228 97.68 Z"/></g><g transform="translate(-86,-6) scale(1,1)"><path fill="none" stroke="#000000" d="M 128.40935031960228 97.68 C 128.40935031960228 92.886167936 132.29519264454774 89 137.088623046875 89 C 141.88205344920226 89 145.76789577414772 92.886167936 145.76789577414772 97.68 C 145.76789577414772 102.473832064 141.88205344920226 106.36 137.088623046875 106.36 C 132.29519264454774 106.36 128.40935031960228 102.473832064 128.40935031960228 97.68 Z" stroke-miterlimit="10"/></g><g transform="translate(-86,-6) scale(1,1)"><path fill="none" stroke="#000000" d="M 137.088623046875 106.36 L 137.088623046875 123.64" stroke-miterlimit="10"/></g><g transform="translate(-86,-6) scale(1,1)"><path fill="none" stroke="#000000" d="M 127.89880486505683 112.84 L 146.27844122869317 112.84" stroke-miterlimit="10"/></g><g transform="translate(-86,-6) scale(1,1)"><path fill="none" stroke="#000000" d="M 137.088623046875 123.64 L 124.32498668323865 141" stroke-miterlimit="10"/></g><g transform="translate(-86,-6) scale(1,1)"><path fill="none" stroke="#000000" d="M 137.088623046875 123.64 L 149.85225941051135 141" stroke-miterlimit="10"/></g><g transform="translate(-86,-6) scale(1,1)"><g><path fill="none" stroke="none"/><text fill="#000000" stroke="none" font-family="Arial" font-size="13px" font-style="normal" font-weight="bold" text-decoration="none" x="121.917724609375" y="161.5">Gość</text></g></g><g transform="translate(-86,-6) scale(1,1)"><path fill="#C0C0C0" stroke="none" d="M 263 64 C 263 54.6111584 297.4740704 47 340 47 C 382.5259296 47 417 54.6111584 417 64 C 417 73.3888416 382.5259296 81 340 81 C 297.4740704 81 263 73.3888416 263 64 Z" opacity="0.2"/></g><g transform="translate(-86,-6) scale(1,1)"><path fill="#ffffff" stroke="none" d="M 256 57 C 256 47.6111584 290.4740704 40 333 40 C 375.5259296 40 410 47.6111584 410 57 C 410 66.3888416 375.5259296 74 333 74 C 290.4740704 74 256 66.3888416 256 57 Z"/></g><g transform="translate(-86,-6) scale(1,1)"><path fill="none" stroke="#000000" d="M 256 57 C 256 47.6111584 290.4740704 40 333 40 C 375.5259296 40 410 47.6111584 410 57 C 410 66.3888416 375.5259296 74 333 74 C 290.4740704 74 256 66.3888416 256 57 Z" stroke-miterlimit="10"/></g><g transform="translate(-86,-6) scale(1,1)"><g><path fill="none" stroke="none"/><text fill="#000000" stroke="none" font-family="Arial" font-size="13px" font-style="normal" font-weight="bold" text-decoration="none" x="286.3955078125" y="64">Przeglądaj treść</text></g></g><g transform="translate(-86,-6) scale(1,1)"><path fill="none" stroke="#000000" d="M 163 118 L 283 75" stroke-miterlimit="10"/></g><g transform="translate(-86,-6) scale(1,1)"><path fill="#C0C0C0" stroke="none" d="M 279 120 C 279 110.6111584 313.2502128 103 355.5 103 C 397.7497872 103 432 110.6111584 432 120 C 432 129.3888416 397.7497872 137 355.5 137 C 313.2502128 137 279 129.3888416 279 120 Z" opacity="0.2"/></g><g transform="translate(-86,-6) scale(1,1)"><path fill="#ffffff" stroke="none" d="M 272 113 C 272 103.6111584 306.2502128 96 348.5 96 C 390.7497872 96 425 103.6111584 425 113 C 425 122.3888416 390.7497872 130 348.5 130 C 306.2502128 130 272 122.3888416 272 113 Z"/></g><g transform="translate(-86,-6) scale(1,1)"><path fill="none" stroke="#000000" d="M 272 113 C 272 103.6111584 306.2502128 96 348.5 96 C 390.7497872 96 425 103.6111584 425 113 C 425 122.3888416 390.7497872 130 348.5 130 C 306.2502128 130 272 122.3888416 272 113 Z" stroke-miterlimit="10"/></g><g transform="translate(-86,-6) scale(1,1)"><g><path fill="none" stroke="none"/><text fill="#000000" stroke="none" font-family="Arial" font-size="13px" font-style="normal" font-weight="bold" text-decoration="none" x="310.563232421875" y="120">Załóż konto&amp;</text></g></g><g transform="translate(-86,-6) scale(1,1)"><path fill="none" stroke="#000000" d="M 163 125 L 271 118" stroke-miterlimit="10"/></g><g transform="translate(-86,-6) scale(1,1)"><path fill="#C0C0C0" stroke="none" d="M 239 179 C 239 167.954304 313.0968656 159 404.5 159 C 495.9031344 159 570 167.954304 570 179 C 570 190.045696 495.9031344 199 404.5 199 C 313.0968656 199 239 190.045696 239 179 Z" opacity="0.2"/></g><g transform="translate(-86,-6) scale(1,1)"><path fill="#ffffff" stroke="none" d="M 232 172 C 232 160.954304 306.0968656 152 397.5 152 C 488.9031344 152 563 160.954304 563 172 C 563 183.045696 488.9031344 192 397.5 192 C 306.0968656 192 232 183.045696 232 172 Z"/></g><g transform="translate(-86,-6) scale(1,1)"><path fill="none" stroke="#000000" d="M 232 172 C 232 160.954304 306.0968656 152 397.5 152 C 488.9031344 152 563 160.954304 563 172 C 563 183.045696 488.9031344 192 397.5 192 C 306.0968656 192 232 183.045696 232 172 Z" stroke-miterlimit="10"/></g><g transform="translate(-86,-6) scale(1,1)"><g><path fill="none" stroke="none"/><text fill="#000000" stroke="none" font-family="Arial" font-size="13px" font-style="normal" font-weight="bold" text-decoration="none" x="294.188720703125" y="179">Wyślij wiadomość do administratora</text></g></g><g transform="translate(-86,-6) scale(1,1)"><path fill="none" stroke="#000000" d="M 163 132 L 276 151" stroke-miterlimit="10"/></g><g transform="translate(-86,-6) scale(1,1)"><path fill="#ffffff" stroke="none" d="M 127.57707492897728 265.68 C 127.57707492897728 260.886167936 131.46291725392274 257 136.25634765625 257 C 141.04977805857726 257 144.93562038352272 260.886167936 144.93562038352272 265.68 C 144.93562038352272 270.473832064 141.04977805857726 274.36 136.25634765625 274.36 C 131.46291725392274 274.36 127.57707492897728 270.473832064 127.57707492897728 265.68 Z"/></g><g transform="translate(-86,-6) scale(1,1)"><path fill="none" stroke="#000000" d="M 127.57707492897728 265.68 C 127.57707492897728 260.886167936 131.46291725392274 257 136.25634765625 257 C 141.04977805857726 257 144.93562038352272 260.886167936 144.93562038352272 265.68 C 144.93562038352272 270.473832064 141.04977805857726 274.36 136.25634765625 274.36 C 131.46291725392274 274.36 127.57707492897728 270.473832064 127.57707492897728 265.68 Z" stroke-miterlimit="10"/></g><g transform="translate(-86,-6) scale(1,1)"><path fill="none" stroke="#000000" d="M 136.25634765625 274.36 L 136.25634765625 291.64" stroke-miterlimit="10"/></g><g transform="translate(-86,-6) scale(1,1)"><path fill="none" stroke="#000000" d="M 127.06652947443183 280.84 L 145.44616583806817 280.84" stroke-miterlimit="10"/></g><g transform="translate(-86,-6) scale(1,1)"><path fill="none" stroke="#000000" d="M 136.25634765625 291.64 L 123.49271129261365 309" stroke-miterlimit="10"/></g><g transform="translate(-86,-6) scale(1,1)"><path fill="none" stroke="#000000" d="M 136.25634765625 291.64 L 149.01998401988635 309" stroke-miterlimit="10"/></g><g transform="translate(-86,-6) scale(1,1)"><g><path fill="none" stroke="none"/><text fill="#000000" stroke="none" font-family="Arial" font-size="13px" font-style="normal" font-weight="bold" text-decoration="none" x="103.38818359375" y="329.5">Użytkownik</text></g></g><g transform="translate(-86,-6) scale(1,1)"><path fill="none" stroke="#000000" d="M 136 255 L 137 168" stroke-miterlimit="10"/></g><g transform="translate(-86,-6) scale(1,1)"><path fill="#FFFFFF" stroke="none" d="M 145.1848701367997 188.4207713087367 L 137 168 L 128.34791130739492 188.22724304632976"/></g><g transform="translate(-86,-6) scale(1,1)"><path fill="none" stroke="#000000" d="M 145.1848701367997 188.4207713087367 L 137 168 L 128.34791130739492 188.22724304632976 L 145.1848701367997 188.4207713087367" stroke-miterlimit="10"/></g><g transform="translate(-86,-6) scale(1,1)"><path fill="#C0C0C0" stroke="none" d="M 271 248 C 271 238.6111584 295.4004784 231 325.5 231 C 355.5995216 231 380 238.6111584 380 248 C 380 257.3888416 355.5995216 265 325.5 265 C 295.4004784 265 271 257.3888416 271 248 Z" opacity="0.2"/></g><g transform="translate(-86,-6) scale(1,1)"><path fill="#ffffff" stroke="none" d="M 264 241 C 264 231.6111584 288.4004784 224 318.5 224 C 348.5995216 224 373 231.6111584 373 241 C 373 250.3888416 348.5995216 258 318.5 258 C 288.4004784 258 264 250.3888416 264 241 Z"/></g><g transform="translate(-86,-6) scale(1,1)"><path fill="none" stroke="#000000" d="M 264 241 C 264 231.6111584 288.4004784 224 318.5 224 C 348.5995216 224 373 231.6111584 373 241 C 373 250.3888416 348.5995216 258 318.5 258 C 288.4004784 258 264 250.3888416 264 241 Z" stroke-miterlimit="10"/></g><g transform="translate(-86,-6) scale(1,1)"><g><path fill="none" stroke="none"/><text fill="#000000" stroke="none" font-family="Arial" font-size="13px" font-style="normal" font-weight="bold" text-decoration="none" x="287.06640625" y="248">Zaloguj się</text></g></g><g transform="translate(-86,-6) scale(1,1)"><path fill="none" stroke="#000000" d="M 178 283 L 263 257" stroke-miterlimit="10"/></g><g transform="translate(-86,-6) scale(1,1)"><path fill="#C0C0C0" stroke="none" d="M 255 309 C 255 296.8497344 284.9969184 287 322 287 C 359.0030816 287 389 296.8497344 389 309 C 389 321.1502656 359.0030816 331 322 331 C 284.9969184 331 255 321.1502656 255 309 Z" opacity="0.2"/></g><g transform="translate(-86,-6) scale(1,1)"><path fill="#ffffff" stroke="none" d="M 248 302 C 248 289.8497344 277.9969184 280 315 280 C 352.0030816 280 382 289.8497344 382 302 C 382 314.1502656 352.0030816 324 315 324 C 277.9969184 324 248 314.1502656 248 302 Z"/></g><g transform="translate(-86,-6) scale(1,1)"><path fill="none" stroke="#000000" d="M 248 302 C 248 289.8497344 277.9969184 280 315 280 C 352.0030816 280 382 289.8497344 382 302 C 382 314.1502656 352.0030816 324 315 324 C 277.9969184 324 248 314.1502656 248 302 Z" stroke-miterlimit="10"/></g><g transform="translate(-86,-6) scale(1,1)"><g><path fill="none" stroke="none"/><text fill="#000000" stroke="none" font-family="Arial" font-size="13px" font-style="normal" font-weight="bold" text-decoration="none" x="274.17822265625" y="309">Rozwiąż quiz*</text></g></g><g transform="translate(-86,-6) scale(1,1)"><path fill="none" stroke="#000000" d="M 178 297 L 247 299" stroke-miterlimit="10"/></g><g transform="translate(-86,-6) scale(1,1)"><path fill="#C0C0C0" stroke="none" d="M 287 369 C 287 354.6405952 325.9512224 343 374 343 C 422.0487776 343 461 354.6405952 461 369 C 461 383.3594048 422.0487776 395 374 395 C 325.9512224 395 287 383.3594048 287 369 Z" opacity="0.2"/></g><g transform="translate(-86,-6) scale(1,1)"><path fill="#ffffff" stroke="none" d="M 280 362 C 280 347.6405952 318.9512224 336 367 336 C 415.0487776 336 454 347.6405952 454 362 C 454 376.3594048 415.0487776 388 367 388 C 318.9512224 388 280 376.3594048 280 362 Z"/></g><g transform="translate(-86,-6) scale(1,1)"><path fill="none" stroke="#000000" d="M 280 362 C 280 347.6405952 318.9512224 336 367 336 C 415.0487776 336 454 347.6405952 454 362 C 454 376.3594048 415.0487776 388 367 388 C 318.9512224 388 280 376.3594048 280 362 Z" stroke-miterlimit="10"/></g><g transform="translate(-86,-6) scale(1,1)"><g><path fill="none" stroke="none"/><text fill="#000000" stroke="none" font-family="Arial" font-size="13px" font-style="normal" font-weight="normal" text-decoration="none" x="340.99365234375" y="360.5">«CRUD»</text></g></g><g transform="translate(-86,-6) scale(1,1)"><g><path fill="none" stroke="none"/><text fill="#000000" stroke="none" font-family="Arial" font-size="13px" font-style="normal" font-weight="bold" text-decoration="none" x="312.81005859375" y="375.5">Zarządzaj kontem*</text></g></g><g transform="translate(-86,-6) scale(1,1)"><path fill="none" stroke="#000000" d="M 178 307 L 279 336" stroke-miterlimit="10"/></g><g transform="translate(-86,-6) scale(1,1)"><path fill="#C0C0C0" stroke="none" d="M 253.5126953125 424 C 253.5126953125 414.6111584 277.2416009125 407 306.5126953125 407 C 335.7837897125 407 359.5126953125 414.6111584 359.5126953125 424 C 359.5126953125 433.3888416 335.7837897125 441 306.5126953125 441 C 277.2416009125 441 253.5126953125 433.3888416 253.5126953125 424 Z" opacity="0.2"/></g><g transform="translate(-86,-6) scale(1,1)"><path fill="#ffffff" stroke="none" d="M 246.5126953125 417 C 246.5126953125 407.6111584 270.2416009125 400 299.5126953125 400 C 328.7837897125 400 352.5126953125 407.6111584 352.5126953125 417 C 352.5126953125 426.3888416 328.7837897125 434 299.5126953125 434 C 270.2416009125 434 246.5126953125 426.3888416 246.5126953125 417 Z"/></g><g transform="translate(-86,-6) scale(1,1)"><path fill="none" stroke="#000000" d="M 246.5126953125 417 C 246.5126953125 407.6111584 270.2416009125 400 299.5126953125 400 C 328.7837897125 400 352.5126953125 407.6111584 352.5126953125 417 C 352.5126953125 426.3888416 328.7837897125 434 299.5126953125 434 C 270.2416009125 434 246.5126953125 426.3888416 246.5126953125 417 Z" stroke-miterlimit="10"/></g><g transform="translate(-86,-6) scale(1,1)"><g><path fill="none" stroke="none"/><text fill="#000000" stroke="none" font-family="Arial" font-size="13px" font-style="normal" font-weight="bold" text-decoration="none" x="271.332275390625" y="424">Kup kurs*</text></g></g><g transform="translate(-86,-6) scale(1,1)"><path fill="none" stroke="#000000" d="M 178 326 L 275 399" stroke-miterlimit="10"/></g><g transform="translate(-86,-6) scale(1,1)"><path fill="#C0C0C0" stroke="none" d="M 479 312 C 479 302.6111584 501.6096176 295 529.5 295 C 557.3903824 295 580 302.6111584 580 312 C 580 321.3888416 557.3903824 329 529.5 329 C 501.6096176 329 479 321.3888416 479 312 Z" opacity="0.2"/></g><g transform="translate(-86,-6) scale(1,1)"><path fill="#ffffff" stroke="none" d="M 472 305 C 472 295.6111584 494.6096176 288 522.5 288 C 550.3903824 288 573 295.6111584 573 305 C 573 314.3888416 550.3903824 322 522.5 322 C 494.6096176 322 472 314.3888416 472 305 Z"/></g><g transform="translate(-86,-6) scale(1,1)"><path fill="none" stroke="#000000" d="M 472 305 C 472 295.6111584 494.6096176 288 522.5 288 C 550.3903824 288 573 295.6111584 573 305 C 573 314.3888416 550.3903824 322 522.5 322 C 494.6096176 322 472 314.3888416 472 305 Z" stroke-miterlimit="10"/></g><g transform="translate(-86,-6) scale(1,1)"><g><path fill="none" stroke="none"/><text fill="#000000" stroke="none" font-family="Arial" font-size="13px" font-style="normal" font-weight="bold" text-decoration="none" x="506.964111328125" y="312">Oceń</text></g></g><g transform="translate(-86,-6) scale(1,1)"><path fill="none" stroke="#000000" d="M 471 304 L 383 303" stroke-miterlimit="10" stroke-dasharray="3"/></g><g transform="translate(-86,-6) scale(1,1)"><path fill="none" stroke="#000000" d="M 393.20985109752246 298.90623149574634 L 383 303 L 393.1141864159287 307.3247234759974" stroke-miterlimit="10"/></g><g transform="translate(-86,-6) scale(1,1)"><g><path fill="none" stroke="none"/><text fill="#000000" stroke="none" font-family="Arial" font-size="13px" font-style="normal" font-weight="normal" text-decoration="none" x="408" y="301">«extend»</text></g></g><g transform="translate(-86,-6) scale(1,1)"><path fill="#ffffff" stroke="none" d="M 104 512 L 565 512 L 575 522 L 575 559 L 104 559 L 104 512"/></g><g transform="translate(-86,-6) scale(1,1)"><path fill="none" stroke="#000000" d="M 104 512 L 565 512 L 575 522 L 575 559 L 104 559 L 104 512 L 104 512" stroke-miterlimit="10"/></g><g transform="translate(-86,-6) scale(1,1)"><path fill="none" stroke="#000000" d="M 565 512 L 565 522 L 575 522 L 565 512" stroke-miterlimit="10"/></g><g transform="translate(-86,-6) scale(1,1)"><g><path fill="none" stroke="none"/><text fill="#000000" stroke="none" font-family="Arial" font-size="13px" font-style="normal" font-weight="normal" text-decoration="none" x="109" y="530">*: opcja dostępna tylko dla zalogowanych użytkowników</text></g></g><g transform="translate(-86,-6) scale(1,1)"><g><path fill="none" stroke="none"/><text fill="#000000" stroke="none" font-family="Arial" font-size="13px" font-style="normal" font-weight="normal" text-decoration="none" x="109" y="545">&amp;: opcja dostępna tylko dla gości</text></g></g><g transform="translate(-86,-6) scale(1,1)"><path fill="#ffffff" stroke="none" d="M 134.43571750710228 697.6800000000001 C 134.43571750710228 692.8861679360001 138.32155983204774 689 143.114990234375 689 C 147.90842063670226 689 151.79426296164772 692.8861679360001 151.79426296164772 697.6800000000001 C 151.79426296164772 702.473832064 147.90842063670226 706.36 143.114990234375 706.36 C 138.32155983204774 706.36 134.43571750710228 702.473832064 134.43571750710228 697.6800000000001 Z"/></g><g transform="translate(-86,-6) scale(1,1)"><path fill="none" stroke="#000000" d="M 134.43571750710228 697.6800000000001 C 134.43571750710228 692.8861679360001 138.32155983204774 689 143.114990234375 689 C 147.90842063670226 689 151.79426296164772 692.8861679360001 151.79426296164772 697.6800000000001 C 151.79426296164772 702.473832064 147.90842063670226 706.36 143.114990234375 706.36 C 138.32155983204774 706.36 134.43571750710228 702.473832064 134.43571750710228 697.6800000000001 Z" stroke-miterlimit="10"/></g><g transform="translate(-86,-6) scale(1,1)"><path fill="none" stroke="#000000" d="M 143.114990234375 706.36 L 143.114990234375 723.64" stroke-miterlimit="10"/></g><g transform="translate(-86,-6) scale(1,1)"><path fill="none" stroke="#000000" d="M 133.92517205255683 712.84 L 152.30480841619317 712.84" stroke-miterlimit="10"/></g><g transform="translate(-86,-6) scale(1,1)"><path fill="none" stroke="#000000" d="M 143.114990234375 723.64 L 130.35135387073865 741" stroke-miterlimit="10"/></g><g transform="translate(-86,-6) scale(1,1)"><path fill="none" stroke="#000000" d="M 143.114990234375 723.64 L 155.87862659801135 741" stroke-miterlimit="10"/></g><g transform="translate(-86,-6) scale(1,1)"><g><path fill="none" stroke="none"/><text fill="#000000" stroke="none" font-family="Arial" font-size="13px" font-style="normal" font-weight="bold" text-decoration="none" x="104.825927734375" y="761.5">Administrator</text></g></g><g transform="translate(-86,-6) scale(1,1)"><path fill="#C0C0C0" stroke="none" d="M 239 641 C 239 626.6405952 275.936504 615 321.5 615 C 367.063496 615 404 626.6405952 404 641 C 404 655.3594048 367.063496 667 321.5 667 C 275.936504 667 239 655.3594048 239 641 Z" opacity="0.2"/></g><g transform="translate(-86,-6) scale(1,1)"><path fill="#ffffff" stroke="none" d="M 232 634 C 232 619.6405952 268.936504 608 314.5 608 C 360.063496 608 397 619.6405952 397 634 C 397 648.3594048 360.063496 660 314.5 660 C 268.936504 660 232 648.3594048 232 634 Z"/></g><g transform="translate(-86,-6) scale(1,1)"><path fill="none" stroke="#000000" d="M 232 634 C 232 619.6405952 268.936504 608 314.5 608 C 360.063496 608 397 619.6405952 397 634 C 397 648.3594048 360.063496 660 314.5 660 C 268.936504 660 232 648.3594048 232 634 Z" stroke-miterlimit="10"/></g><g transform="translate(-86,-6) scale(1,1)"><g><path fill="none" stroke="none"/><text fill="#000000" stroke="none" font-family="Arial" font-size="13px" font-style="normal" font-weight="normal" text-decoration="none" x="288.49365234375" y="632.5">«CRUD»</text></g></g><g transform="translate(-86,-6) scale(1,1)"><g><path fill="none" stroke="none"/><text fill="#000000" stroke="none" font-family="Arial" font-size="13px" font-style="normal" font-weight="bold" text-decoration="none" x="263.201416015625" y="647.5">Zarządzaj quizem</text></g></g><g transform="translate(-86,-6) scale(1,1)"><path fill="none" stroke="#000000" d="M 191 701 L 264 661" stroke-miterlimit="10"/></g><g transform="translate(-86,-6) scale(1,1)"><path fill="#C0C0C0" stroke="none" d="M 295 705 C 295 690.6405952 338.4283744 679 392 679 C 445.5716256 679 489 690.6405952 489 705 C 489 719.3594048 445.5716256 731 392 731 C 338.4283744 731 295 719.3594048 295 705 Z" opacity="0.2"/></g><g transform="translate(-86,-6) scale(1,1)"><path fill="#ffffff" stroke="none" d="M 288 698 C 288 683.6405952 331.4283744 672 385 672 C 438.5716256 672 482 683.6405952 482 698 C 482 712.3594048 438.5716256 724 385 724 C 331.4283744 724 288 712.3594048 288 698 Z"/></g><g transform="translate(-86,-6) scale(1,1)"><path fill="none" stroke="#000000" d="M 288 698 C 288 683.6405952 331.4283744 672 385 672 C 438.5716256 672 482 683.6405952 482 698 C 482 712.3594048 438.5716256 724 385 724 C 331.4283744 724 288 712.3594048 288 698 Z" stroke-miterlimit="10"/></g><g transform="translate(-86,-6) scale(1,1)"><g><path fill="none" stroke="none"/><text fill="#000000" stroke="none" font-family="Arial" font-size="13px" font-style="normal" font-weight="normal" text-decoration="none" x="358.99365234375" y="696.5">«CRUD»</text></g></g><g transform="translate(-86,-6) scale(1,1)"><g><path fill="none" stroke="none"/><text fill="#000000" stroke="none" font-family="Arial" font-size="13px" font-style="normal" font-weight="bold" text-decoration="none" x="325.036865234375" y="711.5">Zarządzaj artykułami</text></g></g><g transform="translate(-86,-6) scale(1,1)"><path fill="none" stroke="#000000" d="M 191 721 L 287 710" stroke-miterlimit="10"/></g><g transform="translate(-86,-6) scale(1,1)"><path fill="#C0C0C0" stroke="none" d="M 279 771 C 279 759.954304 346.60499519999996 751 430 751 C 513.3950048 751 581 759.954304 581 771 C 581 782.045696 513.3950048 791 430 791 C 346.60499519999996 791 279 782.045696 279 771 Z" opacity="0.2"/></g><g transform="translate(-86,-6) scale(1,1)"><path fill="#ffffff" stroke="none" d="M 272 764 C 272 752.954304 339.60499519999996 744 423 744 C 506.39500480000004 744 574 752.954304 574 764 C 574 775.045696 506.39500480000004 784 423 784 C 339.60499519999996 784 272 775.045696 272 764 Z"/></g><g transform="translate(-86,-6) scale(1,1)"><path fill="none" stroke="#000000" d="M 272 764 C 272 752.954304 339.60499519999996 744 423 744 C 506.39500480000004 744 574 752.954304 574 764 C 574 775.045696 506.39500480000004 784 423 784 C 339.60499519999996 784 272 775.045696 272 764 Z" stroke-miterlimit="10"/></g><g transform="translate(-86,-6) scale(1,1)"><g><path fill="none" stroke="none"/><text fill="#000000" stroke="none" font-family="Arial" font-size="13px" font-style="normal" font-weight="bold" text-decoration="none" x="350.3828125" y="771">Przeglądaj użytkowników</text></g></g><g transform="translate(-86,-6) scale(1,1)"><path fill="none" stroke="#000000" d="M 191 733 L 271 744" stroke-miterlimit="10"/></g><g transform="translate(-86,-6) scale(1,1)"><path fill="#C0C0C0" stroke="none" d="M 271 857 C 271 842.6405952 309.5035072 831 357 831 C 404.4964928 831 443 842.6405952 443 857 C 443 871.3594048 404.4964928 883 357 883 C 309.5035072 883 271 871.3594048 271 857 Z" opacity="0.2"/></g><g transform="translate(-86,-6) scale(1,1)"><path fill="#ffffff" stroke="none" d="M 264 850 C 264 835.6405952 302.5035072 824 350 824 C 397.4964928 824 436 835.6405952 436 850 C 436 864.3594048 397.4964928 876 350 876 C 302.5035072 876 264 864.3594048 264 850 Z"/></g><g transform="translate(-86,-6) scale(1,1)"><path fill="none" stroke="#000000" d="M 264 850 C 264 835.6405952 302.5035072 824 350 824 C 397.4964928 824 436 835.6405952 436 850 C 436 864.3594048 397.4964928 876 350 876 C 302.5035072 876 264 864.3594048 264 850 Z" stroke-miterlimit="10"/></g><g transform="translate(-86,-6) scale(1,1)"><g><path fill="none" stroke="none"/><text fill="#000000" stroke="none" font-family="Arial" font-size="13px" font-style="normal" font-weight="normal" text-decoration="none" x="323.99365234375" y="848.5">«CRUD»</text></g></g><g transform="translate(-86,-6) scale(1,1)"><g><path fill="none" stroke="none"/><text fill="#000000" stroke="none" font-family="Arial" font-size="13px" font-style="normal" font-weight="bold" text-decoration="none" x="296.90185546875" y="863.5">Zarządzaj kursami</text></g></g><g transform="translate(-86,-6) scale(1,1)"><path fill="none" stroke="#000000" d="M 191 756 L 305 823" stroke-miterlimit="10"/></g><g transform="translate(-86,-6) scale(1,1)"><path fill="#C0C0C0" stroke="none" d="M 647 648 C 647 638.6111584 681.2502128 631 723.5 631 C 765.7497872 631 800 638.6111584 800 648 C 800 657.3888416 765.7497872 665 723.5 665 C 681.2502128 665 647 657.3888416 647 648 Z" opacity="0.2"/></g><g transform="translate(-86,-6) scale(1,1)"><path fill="#ffffff" stroke="none" d="M 640 641 C 640 631.6111584 674.2502128 624 716.5 624 C 758.7497872 624 793 631.6111584 793 641 C 793 650.3888416 758.7497872 658 716.5 658 C 674.2502128 658 640 650.3888416 640 641 Z"/></g><g transform="translate(-86,-6) scale(1,1)"><path fill="none" stroke="#000000" d="M 640 641 C 640 631.6111584 674.2502128 624 716.5 624 C 758.7497872 624 793 631.6111584 793 641 C 793 650.3888416 758.7497872 658 716.5 658 C 674.2502128 658 640 650.3888416 640 641 Z" stroke-miterlimit="10"/></g><g transform="translate(-86,-6) scale(1,1)"><g><path fill="none" stroke="none"/><text fill="#000000" stroke="none" font-family="Arial" font-size="13px" font-style="normal" font-weight="bold" text-decoration="none" x="669.52099609375" y="648">Przeglądaj dane</text></g></g><g transform="translate(-86,-6) scale(1,1)"><path fill="none" stroke="#000000" d="M 673 659 L 473 743" stroke-miterlimit="10" stroke-dasharray="3"/></g><g transform="translate(-86,-6) scale(1,1)"><path fill="none" stroke="#000000" d="M 480.7397423452364 735.1835821229059 L 473 743 L 483.9998663824343 742.9457822114724" stroke-miterlimit="10"/></g><g transform="translate(-86,-6) scale(1,1)"><g><path fill="none" stroke="none"/><text fill="#000000" stroke="none" font-family="Arial" font-size="13px" font-style="normal" font-weight="normal" text-decoration="none" x="541" y="697">«extend»</text></g></g><g transform="translate(-86,-6) scale(1,1)"><path fill="#C0C0C0" stroke="none" d="M 655 720 C 655 710.6111584 680.5197664 703 712 703 C 743.4802336 703 769 710.6111584 769 720 C 769 729.3888416 743.4802336 737 712 737 C 680.5197664 737 655 729.3888416 655 720 Z" opacity="0.2"/></g><g transform="translate(-86,-6) scale(1,1)"><path fill="#ffffff" stroke="none" d="M 648 713 C 648 703.6111584 673.5197664 696 705 696 C 736.4802336 696 762 703.6111584 762 713 C 762 722.3888416 736.4802336 730 705 730 C 673.5197664 730 648 722.3888416 648 713 Z"/></g><g transform="translate(-86,-6) scale(1,1)"><path fill="none" stroke="#000000" d="M 648 713 C 648 703.6111584 673.5197664 696 705 696 C 736.4802336 696 762 703.6111584 762 713 C 762 722.3888416 736.4802336 730 705 730 C 673.5197664 730 648 722.3888416 648 713 Z" stroke-miterlimit="10"/></g><g transform="translate(-86,-6) scale(1,1)"><g><path fill="none" stroke="none"/><text fill="#000000" stroke="none" font-family="Arial" font-size="13px" font-style="normal" font-weight="bold" text-decoration="none" x="672.119140625" y="720">Usuń konto</text></g></g><g transform="translate(-86,-6) scale(1,1)"><path fill="none" stroke="#000000" d="M 647 723 L 539 743" stroke-miterlimit="10" stroke-dasharray="3"/></g><g transform="translate(-86,-6) scale(1,1)"><path fill="none" stroke="#000000" d="M 548.2262673360926 737.0103429945488 L 539 743 L 549.7592832839271 745.288629112855" stroke-miterlimit="10"/></g><g transform="translate(-86,-6) scale(1,1)"><g><path fill="none" stroke="none"/><text fill="#000000" stroke="none" font-family="Arial" font-size="13px" font-style="normal" font-weight="normal" text-decoration="none" x="570" y="726">«extend»</text></g></g><g transform="translate(-86,-6) scale(1,1)"><path fill="#C0C0C0" stroke="none" d="M 543 40 C 543 30.6111584 580.6080768 23 627 23 C 673.3919232 23 711 30.6111584 711 40 C 711 49.3888416 673.3919232 57 627 57 C 580.6080768 57 543 49.3888416 543 40 Z" opacity="0.2"/></g><g transform="translate(-86,-6) scale(1,1)"><path fill="#ffffff" stroke="none" d="M 536 33 C 536 23.6111584 573.6080768 16 620 16 C 666.3919232 16 704 23.6111584 704 33 C 704 42.3888416 666.3919232 50 620 50 C 573.6080768 50 536 42.3888416 536 33 Z"/></g><g transform="translate(-86,-6) scale(1,1)"><path fill="none" stroke="#000000" d="M 536 33 C 536 23.6111584 573.6080768 16 620 16 C 666.3919232 16 704 23.6111584 704 33 C 704 42.3888416 666.3919232 50 620 50 C 573.6080768 50 536 42.3888416 536 33 Z" stroke-miterlimit="10"/></g><g transform="translate(-86,-6) scale(1,1)"><g><path fill="none" stroke="none"/><text fill="#000000" stroke="none" font-family="Arial" font-size="13px" font-style="normal" font-weight="bold" text-decoration="none" x="568.33642578125" y="40">Dodaj komentarz*</text></g></g><g transform="translate(-86,-6) scale(1,1)"><path fill="none" stroke="#000000" d="M 535 40 L 411 50" stroke-miterlimit="10" stroke-dasharray="3"/></g><g transform="translate(-86,-6) scale(1,1)"><path fill="none" stroke="#000000" d="M 420.79140930981237 44.987186046967295 L 411 50 L 421.4681666593574 53.37897718132546" stroke-miterlimit="10"/></g><g transform="translate(-86,-6) scale(1,1)"><g><path fill="none" stroke="none"/><text fill="#000000" stroke="none" font-family="Arial" font-size="13px" font-style="normal" font-weight="normal" text-decoration="none" x="451" y="40">«extend»</text></g></g><g transform="translate(-86,-6) scale(1,1)"><path fill="#C0C0C0" stroke="none" d="M 103 1041 C 103 1026.6405952 140.3842192 1015 186.5 1015 C 232.6157808 1015 270 1026.6405952 270 1041 C 270 1055.3594048 232.6157808 1067 186.5 1067 C 140.3842192 1067 103 1055.3594048 103 1041 Z" opacity="0.2"/></g><g transform="translate(-86,-6) scale(1,1)"><path fill="#ffffff" stroke="none" d="M 96 1034 C 96 1019.6405952 133.3842192 1008 179.5 1008 C 225.6157808 1008 263 1019.6405952 263 1034 C 263 1048.3594048 225.6157808 1060 179.5 1060 C 133.3842192 1060 96 1048.3594048 96 1034 Z"/></g><g transform="translate(-86,-6) scale(1,1)"><path fill="none" stroke="#000000" d="M 96 1034 C 96 1019.6405952 133.3842192 1008 179.5 1008 C 225.6157808 1008 263 1019.6405952 263 1034 C 263 1048.3594048 225.6157808 1060 179.5 1060 C 133.3842192 1060 96 1048.3594048 96 1034 Z" stroke-miterlimit="10"/></g><g transform="translate(-86,-6) scale(1,1)"><g><path fill="none" stroke="none"/><text fill="#000000" stroke="none" font-family="Arial" font-size="13px" font-style="normal" font-weight="normal" text-decoration="none" x="153.49365234375" y="1032.5">«CRUD»</text></g></g><g transform="translate(-86,-6) scale(1,1)"><g><path fill="none" stroke="none"/><text fill="#000000" stroke="none" font-family="Arial" font-size="13px" font-style="normal" font-weight="bold" text-decoration="none" x="127.839599609375" y="1047.5">Zarządzaj kontem</text></g></g><g transform="translate(-86,-6) scale(1,1)"><path fill="#C0C0C0" stroke="none" d="M 367 1088 C 367 1078.6111584 392.5197664 1071 424 1071 C 455.4802336 1071 481 1078.6111584 481 1088 C 481 1097.3888416 455.4802336 1105 424 1105 C 392.5197664 1105 367 1097.3888416 367 1088 Z" opacity="0.2"/></g><g transform="translate(-86,-6) scale(1,1)"><path fill="#ffffff" stroke="none" d="M 360 1081 C 360 1071.6111584 385.5197664 1064 417 1064 C 448.4802336 1064 474 1071.6111584 474 1081 C 474 1090.3888416 448.4802336 1098 417 1098 C 385.5197664 1098 360 1090.3888416 360 1081 Z"/></g><g transform="translate(-86,-6) scale(1,1)"><path fill="none" stroke="#000000" d="M 360 1081 C 360 1071.6111584 385.5197664 1064 417 1064 C 448.4802336 1064 474 1071.6111584 474 1081 C 474 1090.3888416 448.4802336 1098 417 1098 C 385.5197664 1098 360 1090.3888416 360 1081 Z" stroke-miterlimit="10"/></g><g transform="translate(-86,-6) scale(1,1)"><g><path fill="none" stroke="none"/><text fill="#000000" stroke="none" font-family="Arial" font-size="13px" font-style="normal" font-weight="bold" text-decoration="none" x="384.119140625" y="1088">Usuń konto</text></g></g><g transform="translate(-86,-6) scale(1,1)"><path fill="none" stroke="#000000" d="M 359 1070 L 264 1051" stroke-miterlimit="10" stroke-dasharray="3"/></g><g transform="translate(-86,-6) scale(1,1)"><path fill="none" stroke="#000000" d="M 274.79087693182163 1048.8652927502162 L 264 1051 L 273.1397682256108 1057.1208362812704" stroke-miterlimit="10"/></g><g transform="translate(-86,-6) scale(1,1)"><g><path fill="none" stroke="none"/><text fill="#000000" stroke="none" font-family="Arial" font-size="13px" font-style="normal" font-weight="normal" text-decoration="none" x="306" y="1053">«extend»</text></g></g><g transform="translate(-86,-6) scale(1,1)"><path fill="#C0C0C0" stroke="none" d="M 447 1032 C 447 1022.6111584 473.1913392 1015 505.5 1015 C 537.8086608 1015 564 1022.6111584 564 1032 C 564 1041.3888416 537.8086608 1049 505.5 1049 C 473.1913392 1049 447 1041.3888416 447 1032 Z" opacity="0.2"/></g><g transform="translate(-86,-6) scale(1,1)"><path fill="#ffffff" stroke="none" d="M 440 1025 C 440 1015.6111584 466.1913392 1008 498.5 1008 C 530.8086608 1008 557 1015.6111584 557 1025 C 557 1034.3888416 530.8086608 1042 498.5 1042 C 466.1913392 1042 440 1034.3888416 440 1025 Z"/></g><g transform="translate(-86,-6) scale(1,1)"><path fill="none" stroke="#000000" d="M 440 1025 C 440 1015.6111584 466.1913392 1008 498.5 1008 C 530.8086608 1008 557 1015.6111584 557 1025 C 557 1034.3888416 530.8086608 1042 498.5 1042 C 466.1913392 1042 440 1034.3888416 440 1025 Z" stroke-miterlimit="10"/></g><g transform="translate(-86,-6) scale(1,1)"><g><path fill="none" stroke="none"/><text fill="#000000" stroke="none" font-family="Arial" font-size="13px" font-style="normal" font-weight="bold" text-decoration="none" x="464.168701171875" y="1032">Edytuj dane</text></g></g><g transform="translate(-86,-6) scale(1,1)"><path fill="none" stroke="#000000" d="M 439 1027 L 264 1032" stroke-miterlimit="10" stroke-dasharray="3"/></g><g transform="translate(-86,-6) scale(1,1)"><path fill="none" stroke="#000000" d="M 274.03830648961906 1027.501955667129 L 264 1032 L 274.2787522402893 1035.917556940588" stroke-miterlimit="10"/></g><g transform="translate(-86,-6) scale(1,1)"><g><path fill="none" stroke="none"/><text fill="#000000" stroke="none" font-family="Arial" font-size="13px" font-style="normal" font-weight="normal" text-decoration="none" x="347" y="1019">«extend»</text></g></g><g transform="translate(-86,-6) scale(1,1)"><path fill="#C0C0C0" stroke="none" d="M 431 968 C 431 958.6111584 465.2502128 951 507.5 951 C 549.7497872 951 584 958.6111584 584 968 C 584 977.3888416 549.7497872 985 507.5 985 C 465.2502128 985 431 977.3888416 431 968 Z" opacity="0.2"/></g><g transform="translate(-86,-6) scale(1,1)"><path fill="#ffffff" stroke="none" d="M 424 961 C 424 951.6111584 458.2502128 944 500.5 944 C 542.7497872 944 577 951.6111584 577 961 C 577 970.3888416 542.7497872 978 500.5 978 C 458.2502128 978 424 970.3888416 424 961 Z"/></g><g transform="translate(-86,-6) scale(1,1)"><path fill="none" stroke="#000000" d="M 424 961 C 424 951.6111584 458.2502128 944 500.5 944 C 542.7497872 944 577 951.6111584 577 961 C 577 970.3888416 542.7497872 978 500.5 978 C 458.2502128 978 424 970.3888416 424 961 Z" stroke-miterlimit="10"/></g><g transform="translate(-86,-6) scale(1,1)"><g><path fill="none" stroke="none"/><text fill="#000000" stroke="none" font-family="Arial" font-size="13px" font-style="normal" font-weight="bold" text-decoration="none" x="453.52099609375" y="968">Przeglądaj dane</text></g></g><g transform="translate(-86,-6) scale(1,1)"><path fill="none" stroke="#000000" d="M 423 979 L 264 1015" stroke-miterlimit="10" stroke-dasharray="3"/></g><g transform="translate(-86,-6) scale(1,1)"><path fill="none" stroke="#000000" d="M 272.9822224361912 1008.650222042718 L 264 1015 L 274.84136144737965 1016.8614193421338" stroke-miterlimit="10"/></g><g transform="translate(-86,-6) scale(1,1)"><g><path fill="none" stroke="none"/><text fill="#000000" stroke="none" font-family="Arial" font-size="13px" font-style="normal" font-weight="normal" text-decoration="none" x="328" y="980">«extend»</text></g></g><g transform="translate(-86,-6) scale(1,1)"><path fill="#C0C0C0" stroke="none" d="M 103 1177 C 103 1162.6405952 146.4283744 1151 200 1151 C 253.5716256 1151 297 1162.6405952 297 1177 C 297 1191.3594048 253.5716256 1203 200 1203 C 146.4283744 1203 103 1191.3594048 103 1177 Z" opacity="0.2"/></g><g transform="translate(-86,-6) scale(1,1)"><path fill="#ffffff" stroke="none" d="M 96 1170 C 96 1155.6405952 139.4283744 1144 193 1144 C 246.5716256 1144 290 1155.6405952 290 1170 C 290 1184.3594048 246.5716256 1196 193 1196 C 139.4283744 1196 96 1184.3594048 96 1170 Z"/></g><g transform="translate(-86,-6) scale(1,1)"><path fill="none" stroke="#000000" d="M 96 1170 C 96 1155.6405952 139.4283744 1144 193 1144 C 246.5716256 1144 290 1155.6405952 290 1170 C 290 1184.3594048 246.5716256 1196 193 1196 C 139.4283744 1196 96 1184.3594048 96 1170 Z" stroke-miterlimit="10"/></g><g transform="translate(-86,-6) scale(1,1)"><g><path fill="none" stroke="none"/><text fill="#000000" stroke="none" font-family="Arial" font-size="13px" font-style="normal" font-weight="normal" text-decoration="none" x="166.99365234375" y="1168.5">«CRUD»</text></g></g><g transform="translate(-86,-6) scale(1,1)"><g><path fill="none" stroke="none"/><text fill="#000000" stroke="none" font-family="Arial" font-size="13px" font-style="normal" font-weight="bold" text-decoration="none" x="133.036865234375" y="1183.5">Zarządzaj artykułami</text></g></g><g transform="translate(-86,-6) scale(1,1)"><path fill="#C0C0C0" stroke="none" d="M 199 1272 C 199 1262.6111584 226.7583424 1255 261 1255 C 295.2416576 1255 323 1262.6111584 323 1272 C 323 1281.3888416 295.2416576 1289 261 1289 C 226.7583424 1289 199 1281.3888416 199 1272 Z" opacity="0.2"/></g><g transform="translate(-86,-6) scale(1,1)"><path fill="#ffffff" stroke="none" d="M 192 1265 C 192 1255.6111584 219.7583424 1248 254 1248 C 288.2416576 1248 316 1255.6111584 316 1265 C 316 1274.3888416 288.2416576 1282 254 1282 C 219.7583424 1282 192 1274.3888416 192 1265 Z"/></g><g transform="translate(-86,-6) scale(1,1)"><path fill="none" stroke="#000000" d="M 192 1265 C 192 1255.6111584 219.7583424 1248 254 1248 C 288.2416576 1248 316 1255.6111584 316 1265 C 316 1274.3888416 288.2416576 1282 254 1282 C 219.7583424 1282 192 1274.3888416 192 1265 Z" stroke-miterlimit="10"/></g><g transform="translate(-86,-6) scale(1,1)"><g><path fill="none" stroke="none"/><text fill="#000000" stroke="none" font-family="Arial" font-size="13px" font-style="normal" font-weight="bold" text-decoration="none" x="217.87548828125" y="1272">Usuń artykuł</text></g></g><g transform="translate(-86,-6) scale(1,1)"><path fill="none" stroke="#000000" d="M 242 1247 L 210 1197" stroke-miterlimit="10" stroke-dasharray="3"/></g><g transform="translate(-86,-6) scale(1,1)"><path fill="none" stroke="#000000" d="M 219.0237838640202 1203.2905742802584 L 210 1197 L 211.93267103108204 1207.8288864933388" stroke-miterlimit="10"/></g><g transform="translate(-86,-6) scale(1,1)"><g><path fill="none" stroke="none"/><text fill="#000000" stroke="none" font-family="Arial" font-size="13px" font-style="normal" font-weight="normal" text-decoration="none" x="174" y="1237">«extend»</text></g></g><g transform="translate(-86,-6) scale(1,1)"><path fill="#C0C0C0" stroke="none" d="M 367 1248 C 367 1238.6111584 396.9969184 1231 434 1231 C 471.0030816 1231 501 1238.6111584 501 1248 C 501 1257.3888416 471.0030816 1265 434 1265 C 396.9969184 1265 367 1257.3888416 367 1248 Z" opacity="0.2"/></g><g transform="translate(-86,-6) scale(1,1)"><path fill="#ffffff" stroke="none" d="M 360 1241 C 360 1231.6111584 389.9969184 1224 427 1224 C 464.0030816 1224 494 1231.6111584 494 1241 C 494 1250.3888416 464.0030816 1258 427 1258 C 389.9969184 1258 360 1250.3888416 360 1241 Z"/></g><g transform="translate(-86,-6) scale(1,1)"><path fill="none" stroke="#000000" d="M 360 1241 C 360 1231.6111584 389.9969184 1224 427 1224 C 464.0030816 1224 494 1231.6111584 494 1241 C 494 1250.3888416 464.0030816 1258 427 1258 C 389.9969184 1258 360 1250.3888416 360 1241 Z" stroke-miterlimit="10"/></g><g transform="translate(-86,-6) scale(1,1)"><g><path fill="none" stroke="none"/><text fill="#000000" stroke="none" font-family="Arial" font-size="13px" font-style="normal" font-weight="bold" text-decoration="none" x="387.984130859375" y="1248">Edytuj artykuł</text></g></g><g transform="translate(-86,-6) scale(1,1)"><path fill="none" stroke="#000000" d="M 368 1223 L 282 1197" stroke-miterlimit="10" stroke-dasharray="3"/></g><g transform="translate(-86,-6) scale(1,1)"><path fill="none" stroke="#000000" d="M 292.9460187496654 1195.9115729092064 L 282 1197 L 290.5096382616108 1203.9703699081563" stroke-miterlimit="10"/></g><g transform="translate(-86,-6) scale(1,1)"><g><path fill="none" stroke="none"/><text fill="#000000" stroke="none" font-family="Arial" font-size="13px" font-style="normal" font-weight="normal" text-decoration="none" x="327" y="1204">«extend»</text></g></g><g transform="translate(-86,-6) scale(1,1)"><path fill="#C0C0C0" stroke="none" d="M 423 1176 C 423 1166.6111584 451.8776304 1159 487.5 1159 C 523.1223696 1159 552 1166.6111584 552 1176 C 552 1185.3888416 523.1223696 1193 487.5 1193 C 451.8776304 1193 423 1185.3888416 423 1176 Z" opacity="0.2"/></g><g transform="translate(-86,-6) scale(1,1)"><path fill="#ffffff" stroke="none" d="M 416 1169 C 416 1159.6111584 444.8776304 1152 480.5 1152 C 516.1223696 1152 545 1159.6111584 545 1169 C 545 1178.3888416 516.1223696 1186 480.5 1186 C 444.8776304 1186 416 1178.3888416 416 1169 Z"/></g><g transform="translate(-86,-6) scale(1,1)"><path fill="none" stroke="#000000" d="M 416 1169 C 416 1159.6111584 444.8776304 1152 480.5 1152 C 516.1223696 1152 545 1159.6111584 545 1169 C 545 1178.3888416 516.1223696 1186 480.5 1186 C 444.8776304 1186 416 1178.3888416 416 1169 Z" stroke-miterlimit="10"/></g><g transform="translate(-86,-6) scale(1,1)"><g><path fill="none" stroke="none"/><text fill="#000000" stroke="none" font-family="Arial" font-size="13px" font-style="normal" font-weight="bold" text-decoration="none" x="442.56640625" y="1176">Dodaj artykuł</text></g></g><g transform="translate(-86,-6) scale(1,1)"><path fill="none" stroke="#000000" d="M 415 1169 L 291 1170" stroke-miterlimit="10" stroke-dasharray="3"/></g><g transform="translate(-86,-6) scale(1,1)"><path fill="none" stroke="#000000" d="M 301.12839778177215 1165.708664732954 L 291 1170 L 301.1962910217191 1174.1274264863728" stroke-miterlimit="10"/></g><g transform="translate(-86,-6) scale(1,1)"><g><path fill="none" stroke="none"/><text fill="#000000" stroke="none" font-family="Arial" font-size="13px" font-style="normal" font-weight="normal" text-decoration="none" x="336" y="1165">«extend»</text></g></g><g transform="translate(-86,-6) scale(1,1)"><path fill="#C0C0C0" stroke="none" d="M 111 1385 C 111 1370.6405952 149.5035072 1359 197 1359 C 244.4964928 1359 283 1370.6405952 283 1385 C 283 1399.3594048 244.4964928 1411 197 1411 C 149.5035072 1411 111 1399.3594048 111 1385 Z" opacity="0.2"/></g><g transform="translate(-86,-6) scale(1,1)"><path fill="#ffffff" stroke="none" d="M 104 1378 C 104 1363.6405952 142.5035072 1352 190 1352 C 237.4964928 1352 276 1363.6405952 276 1378 C 276 1392.3594048 237.4964928 1404 190 1404 C 142.5035072 1404 104 1392.3594048 104 1378 Z"/></g><g transform="translate(-86,-6) scale(1,1)"><path fill="none" stroke="#000000" d="M 104 1378 C 104 1363.6405952 142.5035072 1352 190 1352 C 237.4964928 1352 276 1363.6405952 276 1378 C 276 1392.3594048 237.4964928 1404 190 1404 C 142.5035072 1404 104 1392.3594048 104 1378 Z" stroke-miterlimit="10"/></g><g transform="translate(-86,-6) scale(1,1)"><g><path fill="none" stroke="none"/><text fill="#000000" stroke="none" font-family="Arial" font-size="13px" font-style="normal" font-weight="normal" text-decoration="none" x="163.99365234375" y="1376.5">«CRUD»</text></g></g><g transform="translate(-86,-6) scale(1,1)"><g><path fill="none" stroke="none"/><text fill="#000000" stroke="none" font-family="Arial" font-size="13px" font-style="normal" font-weight="bold" text-decoration="none" x="136.90185546875" y="1391.5">Zarządzaj kursami</text></g></g><g transform="translate(-86,-6) scale(1,1)"><path fill="#C0C0C0" stroke="none" d="M 199 1498 C 199 1488.6111584 222.05733279999998 1481 250.5 1481 C 278.9426672 1481 302 1488.6111584 302 1498 C 302 1507.3888416 278.9426672 1515 250.5 1515 C 222.05733279999998 1515 199 1507.3888416 199 1498 Z" opacity="0.2"/></g><g transform="translate(-86,-6) scale(1,1)"><path fill="#ffffff" stroke="none" d="M 192 1491 C 192 1481.6111584 215.05733279999998 1474 243.5 1474 C 271.9426672 1474 295 1481.6111584 295 1491 C 295 1500.3888416 271.9426672 1508 243.5 1508 C 215.05733279999998 1508 192 1500.3888416 192 1491 Z"/></g><g transform="translate(-86,-6) scale(1,1)"><path fill="none" stroke="#000000" d="M 192 1491 C 192 1481.6111584 215.05733279999998 1474 243.5 1474 C 271.9426672 1474 295 1481.6111584 295 1491 C 295 1500.3888416 271.9426672 1508 243.5 1508 C 215.05733279999998 1508 192 1500.3888416 192 1491 Z" stroke-miterlimit="10"/></g><g transform="translate(-86,-6) scale(1,1)"><g><path fill="none" stroke="none"/><text fill="#000000" stroke="none" font-family="Arial" font-size="13px" font-style="normal" font-weight="bold" text-decoration="none" x="214.240478515625" y="1498">Usuń kurs</text></g></g><g transform="translate(-86,-6) scale(1,1)"><path fill="none" stroke="#000000" d="M 235 1473 L 203 1405" stroke-miterlimit="10" stroke-dasharray="3"/></g><g transform="translate(-86,-6) scale(1,1)"><path fill="none" stroke="#000000" d="M 211.13608722845098 1412.4029780906765 L 203 1405 L 203.5183864426701 1415.9877784604557" stroke-miterlimit="10"/></g><g transform="translate(-86,-6) scale(1,1)"><g><path fill="none" stroke="none"/><text fill="#000000" stroke="none" font-family="Arial" font-size="13px" font-style="normal" font-weight="normal" text-decoration="none" x="165" y="1458">«extend»</text></g></g><g transform="translate(-86,-6) scale(1,1)"><path fill="#C0C0C0" stroke="none" d="M 359 1448 C 359 1438.6111584 401.9806592 1431 455 1431 C 508.0193408 1431 551 1438.6111584 551 1448 C 551 1457.3888416 508.0193408 1465 455 1465 C 401.9806592 1465 359 1457.3888416 359 1448 Z" opacity="0.2"/></g><g transform="translate(-86,-6) scale(1,1)"><path fill="#ffffff" stroke="none" d="M 352 1441 C 352 1431.6111584 394.9806592 1424 448 1424 C 501.0193408 1424 544 1431.6111584 544 1441 C 544 1450.3888416 501.0193408 1458 448 1458 C 394.9806592 1458 352 1450.3888416 352 1441 Z"/></g><g transform="translate(-86,-6) scale(1,1)"><path fill="none" stroke="#000000" d="M 352 1441 C 352 1431.6111584 394.9806592 1424 448 1424 C 501.0193408 1424 544 1431.6111584 544 1441 C 544 1450.3888416 501.0193408 1458 448 1458 C 394.9806592 1458 352 1450.3888416 352 1441 Z" stroke-miterlimit="10"/></g><g transform="translate(-86,-6) scale(1,1)"><g><path fill="none" stroke="none"/><text fill="#000000" stroke="none" font-family="Arial" font-size="13px" font-style="normal" font-weight="bold" text-decoration="none" x="389.103271484375" y="1448">Edytuj dane o kursie</text></g></g><g transform="translate(-86,-6) scale(1,1)"><path fill="none" stroke="#000000" d="M 374 1423 L 277 1399" stroke-miterlimit="10" stroke-dasharray="3"/></g><g transform="translate(-86,-6) scale(1,1)"><path fill="none" stroke="#000000" d="M 287.8762391139133 1397.3545752107793 L 277 1399 L 285.8541534576449 1405.527171404864" stroke-miterlimit="10"/></g><g transform="translate(-86,-6) scale(1,1)"><g><path fill="none" stroke="none"/><text fill="#000000" stroke="none" font-family="Arial" font-size="13px" font-style="normal" font-weight="normal" text-decoration="none" x="337" y="1412">«extend»</text></g></g><g transform="translate(-86,-6) scale(1,1)"><path fill="#C0C0C0" stroke="none" d="M 407 1376 C 407 1366.6111584 431.1766208 1359 461 1359 C 490.8233792 1359 515 1366.6111584 515 1376 C 515 1385.3888416 490.8233792 1393 461 1393 C 431.1766208 1393 407 1385.3888416 407 1376 Z" opacity="0.2"/></g><g transform="translate(-86,-6) scale(1,1)"><path fill="#ffffff" stroke="none" d="M 400 1369 C 400 1359.6111584 424.1766208 1352 454 1352 C 483.8233792 1352 508 1359.6111584 508 1369 C 508 1378.3888416 483.8233792 1386 454 1386 C 424.1766208 1386 400 1378.3888416 400 1369 Z"/></g><g transform="translate(-86,-6) scale(1,1)"><path fill="none" stroke="#000000" d="M 400 1369 C 400 1359.6111584 424.1766208 1352 454 1352 C 483.8233792 1352 508 1359.6111584 508 1369 C 508 1378.3888416 483.8233792 1386 454 1386 C 424.1766208 1386 400 1378.3888416 400 1369 Z" stroke-miterlimit="10"/></g><g transform="translate(-86,-6) scale(1,1)"><g><path fill="none" stroke="none"/><text fill="#000000" stroke="none" font-family="Arial" font-size="13px" font-style="normal" font-weight="bold" text-decoration="none" x="422.931396484375" y="1376">Dodaj kurs</text></g></g><g transform="translate(-86,-6) scale(1,1)"><path fill="none" stroke="#000000" d="M 399 1371 L 277 1375" stroke-miterlimit="10" stroke-dasharray="3"/></g><g transform="translate(-86,-6) scale(1,1)"><path fill="none" stroke="#000000" d="M 287.01927406966206 1370.4597194891728 L 277 1375 L 287.2951597749196 1378.8742334995295" stroke-miterlimit="10"/></g><g transform="translate(-86,-6) scale(1,1)"><g><path fill="none" stroke="none"/><text fill="#000000" stroke="none" font-family="Arial" font-size="13px" font-style="normal" font-weight="normal" text-decoration="none" x="320" y="1365">«extend»</text></g></g><g transform="translate(-86,-6) scale(1,1)"><path fill="#C0C0C0" stroke="none" d="M 527 96 C 527 86.6111584 571.77152 79 627 79 C 682.22848 79 727 86.6111584 727 96 C 727 105.3888416 682.22848 113 627 113 C 571.77152 113 527 105.3888416 527 96 Z" opacity="0.2"/></g><g transform="translate(-86,-6) scale(1,1)"><path fill="#ffffff" stroke="none" d="M 520 89 C 520 79.6111584 564.77152 72 620 72 C 675.22848 72 720 79.6111584 720 89 C 720 98.3888416 675.22848 106 620 106 C 564.77152 106 520 98.3888416 520 89 Z"/></g><g transform="translate(-86,-6) scale(1,1)"><path fill="none" stroke="#000000" d="M 520 89 C 520 79.6111584 564.77152 72 620 72 C 675.22848 72 720 79.6111584 720 89 C 720 98.3888416 675.22848 106 620 106 C 564.77152 106 520 98.3888416 520 89 Z" stroke-miterlimit="10"/></g><g transform="translate(-86,-6) scale(1,1)"><g><path fill="none" stroke="none"/><text fill="#000000" stroke="none" font-family="Arial" font-size="13px" font-style="normal" font-weight="bold" text-decoration="none" x="557.872314453125" y="96">Przejrzyj samouczek*</text></g></g><g transform="translate(-86,-6) scale(1,1)"><path fill="none" stroke="#000000" d="M 519 78 L 411 66" stroke-miterlimit="10" stroke-dasharray="3"/></g><g transform="translate(-86,-6) scale(1,1)"><path fill="none" stroke="#000000" d="M 421.5653807116052 62.938508465005825 L 411 66 L 420.63565377193316 71.30605092205398" stroke-miterlimit="10"/></g><g transform="translate(-86,-6) scale(1,1)"><g><path fill="none" stroke="none"/><text fill="#000000" stroke="none" font-family="Arial" font-size="13px" font-style="normal" font-weight="normal" text-decoration="none" x="455" y="69">«extend»</text></g></g><g transform="translate(-86,-6) scale(1,1)"><path fill="#C0C0C0" stroke="none" d="M 423 472 C 423 462.6111584 458.36950079999997 455 502 455 C 545.6304992 455 581 462.6111584 581 472 C 581 481.3888416 545.6304992 489 502 489 C 458.36950079999997 489 423 481.3888416 423 472 Z" opacity="0.2"/></g><g transform="translate(-86,-6) scale(1,1)"><path fill="#ffffff" stroke="none" d="M 416 465 C 416 455.6111584 451.36950079999997 448 495 448 C 538.6304992 448 574 455.6111584 574 465 C 574 474.3888416 538.6304992 482 495 482 C 451.36950079999997 482 416 474.3888416 416 465 Z"/></g><g transform="translate(-86,-6) scale(1,1)"><path fill="none" stroke="#000000" d="M 416 465 C 416 455.6111584 451.36950079999997 448 495 448 C 538.6304992 448 574 455.6111584 574 465 C 574 474.3888416 538.6304992 482 495 482 C 451.36950079999997 482 416 474.3888416 416 465 Z" stroke-miterlimit="10"/></g><g transform="translate(-86,-6) scale(1,1)"><g><path fill="none" stroke="none"/><text fill="#000000" stroke="none" font-family="Arial" font-size="13px" font-style="normal" font-weight="bold" text-decoration="none" x="446.5927734375" y="472">Złóż zamówienie</text></g></g><g transform="translate(-86,-6) scale(1,1)"><path fill="none" stroke="#000000" d="M 422 447 L 354 430" stroke-miterlimit="10" stroke-dasharray="3"/></g><g transform="translate(-86,-6) scale(1,1)"><path fill="none" stroke="#000000" d="M 364.8802008145965 428.38097861840737 L 354 430 L 362.8382847744827 436.5486427788624" stroke-miterlimit="10"/></g><g transform="translate(-86,-6) scale(1,1)"><g><path fill="none" stroke="none"/><text fill="#000000" stroke="none" font-family="Arial" font-size="13px" font-style="normal" font-weight="normal" text-decoration="none" x="388" y="436">«extend»</text></g></g><g transform="translate(-86,-6) scale(1,1)"><path fill="#C0C0C0" stroke="none" d="M 471 416 C 471 406.6111584 494.505048 399 523.5 399 C 552.494952 399 576 406.6111584 576 416 C 576 425.3888416 552.494952 433 523.5 433 C 494.505048 433 471 425.3888416 471 416 Z" opacity="0.2"/></g><g transform="translate(-86,-6) scale(1,1)"><path fill="#ffffff" stroke="none" d="M 464 409 C 464 399.6111584 487.505048 392 516.5 392 C 545.494952 392 569 399.6111584 569 409 C 569 418.3888416 545.494952 426 516.5 426 C 487.505048 426 464 418.3888416 464 409 Z"/></g><g transform="translate(-86,-6) scale(1,1)"><path fill="none" stroke="#000000" d="M 464 409 C 464 399.6111584 487.505048 392 516.5 392 C 545.494952 392 569 399.6111584 569 409 C 569 418.3888416 545.494952 426 516.5 426 C 487.505048 426 464 418.3888416 464 409 Z" stroke-miterlimit="10"/></g><g transform="translate(-86,-6) scale(1,1)"><g><path fill="none" stroke="none"/><text fill="#000000" stroke="none" font-family="Arial" font-size="13px" font-style="normal" font-weight="bold" text-decoration="none" x="485.786865234375" y="416">Przeglądaj</text></g></g><g transform="translate(-86,-6) scale(1,1)"><path fill="none" stroke="#000000" d="M 463 411 L 354 415" stroke-miterlimit="10" stroke-dasharray="3"/></g><g transform="translate(-86,-6) scale(1,1)"><path fill="none" stroke="#000000" d="M 364.00146498119204 410.42062250628 L 354 415 L 364.31021258942314 418.8339948305782" stroke-miterlimit="10"/></g><g transform="translate(-86,-6) scale(1,1)"><g><path fill="none" stroke="none"/><text fill="#000000" stroke="none" font-family="Arial" font-size="13px" font-style="normal" font-weight="normal" text-decoration="none" x="393" y="406">«extend»</text></g></g><g transform="translate(-86,-6) scale(1,1)"><path fill="#C0C0C0" stroke="none" d="M 639 472 C 639 462.6111584 683.3238048 455 738 455 C 792.6761952 455 837 462.6111584 837 472 C 837 481.3888416 792.6761952 489 738 489 C 683.3238048 489 639 481.3888416 639 472 Z" opacity="0.2"/></g><g transform="translate(-86,-6) scale(1,1)"><path fill="#ffffff" stroke="none" d="M 632 465 C 632 455.6111584 676.3238048 448 731 448 C 785.6761952 448 830 455.6111584 830 465 C 830 474.3888416 785.6761952 482 731 482 C 676.3238048 482 632 474.3888416 632 465 Z"/></g><g transform="translate(-86,-6) scale(1,1)"><path fill="none" stroke="#000000" d="M 632 465 C 632 455.6111584 676.3238048 448 731 448 C 785.6761952 448 830 455.6111584 830 465 C 830 474.3888416 785.6761952 482 731 482 C 676.3238048 482 632 474.3888416 632 465 Z" stroke-miterlimit="10"/></g><g transform="translate(-86,-6) scale(1,1)"><g><path fill="none" stroke="none"/><text fill="#000000" stroke="none" font-family="Arial" font-size="13px" font-style="normal" font-weight="bold" text-decoration="none" x="670.31640625" y="472">Wybierz rodzaj kursu</text></g></g><g transform="translate(-86,-6) scale(1,1)"><path fill="none" stroke="#000000" d="M 575 465 L 631 465" stroke-miterlimit="10" stroke-dasharray="3"/></g><g transform="translate(-86,-6) scale(1,1)"><path fill="none" stroke="#000000" d="M 620.8373251423759 469.209517756016 L 631 465 L 620.8373251423758 460.790482243984" stroke-miterlimit="10"/></g><g transform="translate(-86,-6) scale(1,1)"><g><path fill="none" stroke="none"/><text fill="#000000" stroke="none" font-family="Arial" font-size="13px" font-style="normal" font-weight="normal" text-decoration="none" x="565" y="453">«include»</text></g></g></g></svg>