<svg version="1.1" xmlns="http://www.w3.org/2000/svg" xmlns:xlink="http://www.w3.org/1999/xlink" width="775.43701171875" height="1689"><defs/><g><g transform="translate(-38,-70) scale(1,1)"><path fill="#000000" stroke="none" d="M 104 89.5 C 104 84.2532944 108.2532944 80 113.5 80 C 118.7467056 80 123 84.2532944 123 89.5 C 123 94.7467056 118.7467056 99 113.5 99 C 108.2532944 99 104 94.7467056 104 89.5 Z"/></g><g transform="translate(-38,-70) scale(1,1)"><path fill="#000000" stroke="none" d="M 83 160 L 146 160 Q 149 160 149 163 L 149 163 Q 149 166 146 166 L 83 166 Q 80 166 80 163 L 80 163 Q 80 160 83 160 Z"/></g><g transform="translate(-38,-70) scale(1,1)"><path fill="none" stroke="#000000" d="M 113 100 L 114 159" stroke-miterlimit="10"/></g><g transform="translate(-38,-70) scale(1,1)"><path fill="none" stroke="#000000" d="M 109.61886276530457 148.9101220755271 L 114 159 L 118.03668925377721 148.76744705029876" stroke-miterlimit="10"/></g><g transform="translate(-38,-70) scale(1,1)"><path fill="#ffffff" stroke="none" d="M 82 208 L 150 208 Q 160 208 160 218 L 160 251 Q 160 261 150 261 L 82 261 Q 72 261 72 251 L 72 218 Q 72 208 82 208 Z"/></g><g transform="translate(-38,-70) scale(1,1)"><path fill="none" stroke="#000000" d="M 82 208 L 150 208 Q 160 208 160 218 L 160 251 Q 160 261 150 261 L 82 261 Q 72 261 72 251 L 72 218 Q 72 208 82 208 Z" stroke-miterlimit="10"/></g><g transform="translate(-38,-70) scale(1,1)"><g><path fill="none" stroke="none"/><text fill="#000000" stroke="none" font-family="Arial" font-size="13px" font-style="normal" font-weight="bold" text-decoration="none" x="90.7109375" y="227.5">Chce się</text><text fill="#000000" stroke="none" font-family="Arial" font-size="13px" font-style="normal" font-weight="bold" text-decoration="none" x="85.286865234375" y="240.5">zalogować</text></g></g><g transform="translate(-38,-70) scale(1,1)"><path fill="#ffffff" stroke="none" d="M 96 324 L 116 296 L 136 324 L 116 352 L 96 324"/></g><g transform="translate(-38,-70) scale(1,1)"><path fill="none" stroke="#000000" d="M 96 324 L 116 296 L 136 324 L 116 352 L 96 324 L 96 324" stroke-miterlimit="10"/></g><g transform="translate(-38,-70) scale(1,1)"><path fill="none" stroke="#000000" d="M 114 166 L 115 207" stroke-miterlimit="10"/></g><g transform="translate(-38,-70) scale(1,1)"><path fill="none" stroke="#000000" d="M 110.54393734862802 196.94298724038555 L 115 207 L 118.96046980262577 196.73770596101974" stroke-miterlimit="10"/></g><g transform="translate(-38,-70) scale(1,1)"><path fill="none" stroke="#000000" d="M 116 262 L 116 295" stroke-miterlimit="10"/></g><g transform="translate(-38,-70) scale(1,1)"><path fill="none" stroke="#000000" d="M 111.79048224398402 284.83732514237585 L 116 295 L 120.20951775601598 284.83732514237585" stroke-miterlimit="10"/></g><g transform="translate(-38,-70) scale(1,1)"><path fill="#ffffff" stroke="none" d="M 674 344 L 774 344 Q 784 344 784 354 L 784 387 Q 784 397 774 397 L 674 397 Q 664 397 664 387 L 664 354 Q 664 344 674 344 Z"/></g><g transform="translate(-38,-70) scale(1,1)"><path fill="none" stroke="#000000" d="M 674 344 L 774 344 Q 784 344 784 354 L 784 387 Q 784 397 774 397 L 674 397 Q 664 397 664 387 L 664 354 Q 664 344 674 344 Z" stroke-miterlimit="10"/></g><g transform="translate(-38,-70) scale(1,1)"><g><path fill="none" stroke="none"/><text fill="#000000" stroke="none" font-family="Arial" font-size="13px" font-style="normal" font-weight="bold" text-decoration="none" x="677.036865234375" y="363.5">Wyświetla panel</text><text fill="#000000" stroke="none" font-family="Arial" font-size="13px" font-style="normal" font-weight="bold" text-decoration="none" x="694.727783203125" y="376.5">logowania</text></g></g><g transform="translate(-38,-70) scale(1,1)"><path fill="#ffffff" stroke="none" d="M 674 432 L 774 432 Q 784 432 784 442 L 784 475 Q 784 485 774 485 L 674 485 Q 664 485 664 475 L 664 442 Q 664 432 674 432 Z"/></g><g transform="translate(-38,-70) scale(1,1)"><path fill="none" stroke="#000000" d="M 674 432 L 774 432 Q 784 432 784 442 L 784 475 Q 784 485 774 485 L 674 485 Q 664 485 664 475 L 664 442 Q 664 432 674 432 Z" stroke-miterlimit="10"/></g><g transform="translate(-38,-70) scale(1,1)"><g><path fill="none" stroke="none"/><text fill="#000000" stroke="none" font-family="Arial" font-size="13px" font-style="normal" font-weight="bold" text-decoration="none" x="677.036865234375" y="451.5">Wyświetla panel</text><text fill="#000000" stroke="none" font-family="Arial" font-size="13px" font-style="normal" font-weight="bold" text-decoration="none" x="696.187744140625" y="464.5">rejestracji</text></g></g><g transform="translate(-38,-70) scale(1,1)"><path fill="#ffffff" stroke="none" d="M 90 496 L 150 496 Q 160 496 160 506 L 160 539 Q 160 549 150 549 L 90 549 Q 80 549 80 539 L 80 506 Q 80 496 90 496 Z"/></g><g transform="translate(-38,-70) scale(1,1)"><path fill="none" stroke="#000000" d="M 90 496 L 150 496 Q 160 496 160 506 L 160 539 Q 160 549 150 549 L 90 549 Q 80 549 80 539 L 80 506 Q 80 496 90 496 Z" stroke-miterlimit="10"/></g><g transform="translate(-38,-70) scale(1,1)"><g><path fill="none" stroke="none"/><text fill="#000000" stroke="none" font-family="Arial" font-size="13px" font-style="normal" font-weight="bold" text-decoration="none" x="90.7373046875" y="515.5">Rejestruje</text><text fill="#000000" stroke="none" font-family="Arial" font-size="13px" font-style="normal" font-weight="bold" text-decoration="none" x="111.69091796875" y="528.5">się</text></g></g><g transform="translate(-38,-70) scale(1,1)"><path fill="none" stroke="#000000" d="M 136 324 L 720 324 M 720 324 A 8 8 0 0 1 728 332 L 728 344" stroke-miterlimit="10"/></g><g transform="translate(-38,-70) scale(1,1)"><path fill="none" stroke="#000000" d="M 723.790482243984 333.83732514237585 L 728 344 L 732.209517756016 333.83732514237585" stroke-miterlimit="10"/></g><g transform="translate(-38,-70) scale(1,1)"><g><path fill="none" stroke="none"/><text fill="#000000" stroke="none" font-family="Arial" font-size="13px" font-style="normal" font-weight="normal" text-decoration="none" x="140" y="316">[Ma konto]</text></g></g><g transform="translate(-38,-70) scale(1,1)"><path fill="none" stroke="#000000" d="M 116 352 L 116 458 M 116 458 A 8 8 0 0 0 124 466 L 664 466" stroke-miterlimit="10"/></g><g transform="translate(-38,-70) scale(1,1)"><path fill="none" stroke="#000000" d="M 653.8373251423759 470.209517756016 L 664 466 L 653.8373251423758 461.790482243984" stroke-miterlimit="10"/></g><g transform="translate(-38,-70) scale(1,1)"><g><path fill="none" stroke="none"/><text fill="#000000" stroke="none" font-family="Arial" font-size="13px" font-style="normal" font-weight="normal" text-decoration="none" x="120" y="405">[Nie ma konta]</text></g></g><g transform="translate(-38,-70) scale(1,1)"><path fill="none" stroke="#000000" d="M 724 485 L 724 514 M 724 514 A 8 8 0 0 1 716 522 L 160 522" stroke-miterlimit="10"/></g><g transform="translate(-38,-70) scale(1,1)"><path fill="none" stroke="#000000" d="M 170.16267485762415 517.790482243984 L 160 522 L 170.16267485762415 526.209517756016" stroke-miterlimit="10"/></g><g transform="translate(-38,-70) scale(1,1)"><path fill="#ffffff" stroke="none" d="M 666 568 L 793.43701171875 568 Q 803.43701171875 568 803.43701171875 578 L 803.43701171875 624 Q 803.43701171875 634 793.43701171875 634 L 666 634 Q 656 634 656 624 L 656 578 Q 656 568 666 568 Z"/></g><g transform="translate(-38,-70) scale(1,1)"><path fill="none" stroke="#000000" d="M 666 568 L 793.43701171875 568 Q 803.43701171875 568 803.43701171875 578 L 803.43701171875 624 Q 803.43701171875 634 793.43701171875 634 L 666 634 Q 656 634 656 624 L 656 578 Q 656 568 666 568 Z" stroke-miterlimit="10"/></g><g transform="translate(-38,-70) scale(1,1)"><g><path fill="none" stroke="none"/><text fill="#000000" stroke="none" font-family="Arial" font-size="13px" font-style="normal" font-weight="bold" text-decoration="none" x="665.41357421875" y="587.5">System przeprowadza</text><text fill="#000000" stroke="none" font-family="Arial" font-size="13px" font-style="normal" font-weight="bold" text-decoration="none" x="677.324951171875" y="600.5">proces zakładania</text><text fill="#000000" stroke="none" font-family="Arial" font-size="13px" font-style="normal" font-weight="bold" text-decoration="none" x="713.817626953125" y="613.5">konta</text></g></g><g transform="translate(-38,-70) scale(1,1)"><path fill="#ffffff" stroke="none" d="M 712 692 L 732 664 L 752 692 L 732 720 L 712 692"/></g><g transform="translate(-38,-70) scale(1,1)"><path fill="none" stroke="#000000" d="M 712 692 L 732 664 L 752 692 L 732 720 L 712 692 L 712 692" stroke-miterlimit="10"/></g><g transform="translate(-38,-70) scale(1,1)"><path fill="none" stroke="#000000" d="M 730 635 L 731 663" stroke-miterlimit="10"/></g><g transform="translate(-38,-70) scale(1,1)"><path fill="none" stroke="#000000" d="M 726.4304429001526 652.9940443779101 L 731 663 L 734.8441142603102 652.6935561150473" stroke-miterlimit="10"/></g><g transform="translate(-38,-70) scale(1,1)"><path fill="none" stroke="#000000" d="M 712 692 L 56 692 M 56 692 A 8 8 0 0 1 48 684 L 48 136 M 48 136 A 8 8 0 0 1 56 128 L 88 128 M 88 128 A 8 8 0 0 1 96 136 L 96 160" stroke-miterlimit="10"/></g><g transform="translate(-38,-70) scale(1,1)"><path fill="none" stroke="#000000" d="M 91.79048224398402 149.83732514237585 L 96 160 L 100.20951775601598 149.83732514237585" stroke-miterlimit="10"/></g><g transform="translate(-38,-70) scale(1,1)"><g><path fill="none" stroke="none"/><text fill="#000000" stroke="none" font-family="Arial" font-size="13px" font-style="normal" font-weight="normal" text-decoration="none" x="599" y="684">[Konto utworzone]</text></g></g><g transform="translate(-38,-70) scale(1,1)"><path fill="none" stroke="#000000" d="M 104 748.5 C 104 741.59644 109.59644 736 116.5 736 C 123.40356 736 129 741.59644 129 748.5 C 129 755.40356 123.40356 761 116.5 761 C 109.59644 761 104 755.40356 104 748.5 Z" stroke-miterlimit="10"/></g><g transform="translate(-38,-70) scale(1,1)"><path fill="#000000" stroke="none" d="M 109 748.5 C 109 744.357864 112.357864 741 116.5 741 C 120.642136 741 124 744.357864 124 748.5 C 124 752.642136 120.642136 756 116.5 756 C 112.357864 756 109 752.642136 109 748.5 Z"/></g><g transform="translate(-38,-70) scale(1,1)"><path fill="none" stroke="#000000" d="M 732 721 L 732 752 L 130 748" stroke-miterlimit="10"/></g><g transform="translate(-38,-70) scale(1,1)"><path fill="none" stroke="#000000" d="M 140.19042012615117 743.8580997534305 L 130 748 L 140.13448092568896 752.2769494229938" stroke-miterlimit="10"/></g><g transform="translate(-38,-70) scale(1,1)"><g><path fill="none" stroke="none"/><text fill="#000000" stroke="none" font-family="Arial" font-size="13px" font-style="normal" font-weight="normal" text-decoration="none" x="600" y="747">[Anulowanie operacji]</text></g></g><g transform="translate(-38,-70) scale(1,1)"><path fill="#000000" stroke="none" d="M 395 800 L 458 800 Q 461 800 461 803 L 461 803 Q 461 806 458 806 L 395 806 Q 392 806 392 803 L 392 803 Q 392 800 395 800 Z"/></g><g transform="translate(-38,-70) scale(1,1)"><path fill="none" stroke="#000000" d="M 726 397 L 726 408 M 726 408 A 8 8 0 0 1 718 416 L 456 416 M 456 416 A 8 8 0 0 0 448 424 L 448 800" stroke-miterlimit="10"/></g><g transform="translate(-38,-70) scale(1,1)"><path fill="none" stroke="#000000" d="M 443.790482243984 789.8373251423759 L 448 800 L 452.209517756016 789.8373251423759" stroke-miterlimit="10"/></g><g transform="translate(-38,-70) scale(1,1)"><path fill="#ffffff" stroke="none" d="M 378 848 L 470 848 Q 480 848 480 858 L 480 891 Q 480 901 470 901 L 378 901 Q 368 901 368 891 L 368 858 Q 368 848 378 848 Z"/></g><g transform="translate(-38,-70) scale(1,1)"><path fill="none" stroke="#000000" d="M 378 848 L 470 848 Q 480 848 480 858 L 480 891 Q 480 901 470 901 L 378 901 Q 368 901 368 891 L 368 858 Q 368 848 378 848 Z" stroke-miterlimit="10"/></g><g transform="translate(-38,-70) scale(1,1)"><g><path fill="none" stroke="none"/><text fill="#000000" stroke="none" font-family="Arial" font-size="13px" font-style="normal" font-weight="bold" text-decoration="none" x="378.458740234375" y="867.5">Podaje dane do</text><text fill="#000000" stroke="none" font-family="Arial" font-size="13px" font-style="normal" font-weight="bold" text-decoration="none" x="394.727783203125" y="880.5">logowania</text></g></g><g transform="translate(-38,-70) scale(1,1)"><path fill="none" stroke="#000000" d="M 426 805 L 426 848" stroke-miterlimit="10"/></g><g transform="translate(-38,-70) scale(1,1)"><path fill="none" stroke="#000000" d="M 421.790482243984 837.8373251423759 L 426 848 L 430.209517756016 837.8373251423759" stroke-miterlimit="10"/></g><g transform="translate(-38,-70) scale(1,1)"><path fill="#ffffff" stroke="none" d="M 698 840 L 766 840 Q 776 840 776 850 L 776 883 Q 776 893 766 893 L 698 893 Q 688 893 688 883 L 688 850 Q 688 840 698 840 Z"/></g><g transform="translate(-38,-70) scale(1,1)"><path fill="none" stroke="#000000" d="M 698 840 L 766 840 Q 776 840 776 850 L 776 883 Q 776 893 766 893 L 698 893 Q 688 893 688 883 L 688 850 Q 688 840 698 840 Z" stroke-miterlimit="10"/></g><g transform="translate(-38,-70) scale(1,1)"><g><path fill="none" stroke="none"/><text fill="#000000" stroke="none" font-family="Arial" font-size="13px" font-style="normal" font-weight="bold" text-decoration="none" x="701.661376953125" y="859.5">Weryfikuje</text><text fill="#000000" stroke="none" font-family="Arial" font-size="13px" font-style="normal" font-weight="bold" text-decoration="none" x="710.325927734375" y="872.5">rekordy</text></g></g><g transform="translate(-38,-70) scale(1,1)"><path fill="#ffffff" stroke="none" d="M 712 964 L 732 936 L 752 964 L 732 992 L 712 964"/></g><g transform="translate(-38,-70) scale(1,1)"><path fill="none" stroke="#000000" d="M 712 964 L 732 936 L 752 964 L 732 992 L 712 964 L 712 964" stroke-miterlimit="10"/></g><g transform="translate(-38,-70) scale(1,1)"><path fill="none" stroke="#000000" d="M 480 874 L 688 874" stroke-miterlimit="10"/></g><g transform="translate(-38,-70) scale(1,1)"><path fill="none" stroke="#000000" d="M 677.8373251423759 878.209517756016 L 688 874 L 677.8373251423758 869.790482243984" stroke-miterlimit="10"/></g><g transform="translate(-38,-70) scale(1,1)"><path fill="none" stroke="#000000" d="M 732 894 L 732 935" stroke-miterlimit="10"/></g><g transform="translate(-38,-70) scale(1,1)"><path fill="none" stroke="#000000" d="M 727.790482243984 924.8373251423759 L 732 935 L 736.209517756016 924.8373251423759" stroke-miterlimit="10"/></g><g transform="translate(-38,-70) scale(1,1)"><path fill="#ffffff" stroke="none" d="M 378 1008 L 468.86083984375 1008 Q 478.86083984375 1008 478.86083984375 1018 L 478.86083984375 1051 Q 478.86083984375 1061 468.86083984375 1061 L 378 1061 Q 368 1061 368 1051 L 368 1018 Q 368 1008 378 1008 Z"/></g><g transform="translate(-38,-70) scale(1,1)"><path fill="none" stroke="#000000" d="M 378 1008 L 468.86083984375 1008 Q 478.86083984375 1008 478.86083984375 1018 L 478.86083984375 1051 Q 478.86083984375 1061 468.86083984375 1061 L 378 1061 Q 368 1061 368 1051 L 368 1018 Q 368 1008 378 1008 Z" stroke-miterlimit="10"/></g><g transform="translate(-38,-70) scale(1,1)"><g><path fill="none" stroke="none"/><text fill="#000000" stroke="none" font-family="Arial" font-size="13px" font-style="normal" font-weight="bold" text-decoration="none" x="393.082275390625" y="1027.5">Zapomniał</text><text fill="#000000" stroke="none" font-family="Arial" font-size="13px" font-style="normal" font-weight="bold" text-decoration="none" x="407.891357421875" y="1040.5">hasła</text></g></g><g transform="translate(-38,-70) scale(1,1)"><path fill="none" stroke="#000000" d="M 712 964 L 432 964 M 432 964 A 8 8 0 0 0 424 972 L 424 1008" stroke-miterlimit="10"/></g><g transform="translate(-38,-70) scale(1,1)"><path fill="none" stroke="#000000" d="M 419.790482243984 997.8373251423759 L 424 1008 L 428.209517756016 997.8373251423759" stroke-miterlimit="10"/></g><g transform="translate(-38,-70) scale(1,1)"><g><path fill="none" stroke="none"/><text fill="#000000" stroke="none" font-family="Arial" font-size="13px" font-style="normal" font-weight="normal" text-decoration="none" x="627" y="957">[Błędne hasło]</text></g></g><g transform="translate(-38,-70) scale(1,1)"><path fill="#ffffff" stroke="none" d="M 690 1080 L 774 1080 Q 784 1080 784 1090 L 784 1126 Q 784 1136 774 1136 L 690 1136 Q 680 1136 680 1126 L 680 1090 Q 680 1080 690 1080 Z"/></g><g transform="translate(-38,-70) scale(1,1)"><path fill="none" stroke="#000000" d="M 690 1080 L 774 1080 Q 784 1080 784 1090 L 784 1126 Q 784 1136 774 1136 L 690 1136 Q 680 1136 680 1126 L 680 1090 Q 680 1080 690 1080 Z" stroke-miterlimit="10"/></g><g transform="translate(-38,-70) scale(1,1)"><g><path fill="none" stroke="none"/><text fill="#000000" stroke="none" font-family="Arial" font-size="13px" font-style="normal" font-weight="bold" text-decoration="none" x="712.48095703125" y="1099.5">Loguje</text><text fill="#000000" stroke="none" font-family="Arial" font-size="13px" font-style="normal" font-weight="bold" text-decoration="none" x="696.595947265625" y="1112.5">użytkownika</text></g></g><g transform="translate(-38,-70) scale(1,1)"><path fill="none" stroke="#000000" d="M 104 1108.5 C 104 1101.59644 109.59644 1096 116.5 1096 C 123.40356 1096 129 1101.59644 129 1108.5 C 129 1115.40356 123.40356 1121 116.5 1121 C 109.59644 1121 104 1115.40356 104 1108.5 Z" stroke-miterlimit="10"/></g><g transform="translate(-38,-70) scale(1,1)"><path fill="#000000" stroke="none" d="M 109 1108.5 C 109 1104.357864 112.357864 1101 116.5 1101 C 120.642136 1101 124 1104.357864 124 1108.5 C 124 1112.642136 120.642136 1116 116.5 1116 C 112.357864 1116 109 1112.642136 109 1108.5 Z"/></g><g transform="translate(-38,-70) scale(1,1)"><path fill="none" stroke="#000000" d="M 680 1108 L 129 1108" stroke-miterlimit="10"/></g><g transform="translate(-38,-70) scale(1,1)"><path fill="none" stroke="#000000" d="M 139.16267485762415 1103.7904822439841 L 129 1108 L 139.16267485762415 1112.2095177560159" stroke-miterlimit="10"/></g><g transform="translate(-38,-70) scale(1,1)"><path fill="none" stroke="#000000" d="M 732 993 L 732 1079" stroke-miterlimit="10"/></g><g transform="translate(-38,-70) scale(1,1)"><path fill="none" stroke="#000000" d="M 727.790482243984 1068.837325142376 L 732 1079 L 736.209517756016 1068.837325142376" stroke-miterlimit="10"/></g><g transform="translate(-38,-70) scale(1,1)"><g><path fill="none" stroke="none"/><text fill="#000000" stroke="none" font-family="Arial" font-size="13px" font-style="normal" font-weight="normal" text-decoration="none" x="735" y="1037">[Else]</text></g></g><g transform="translate(-38,-70) scale(1,1)"><path fill="#ffffff" stroke="none" d="M 682 1192 L 782 1192 Q 792 1192 792 1202 L 792 1248 Q 792 1258 782 1258 L 682 1258 Q 672 1258 672 1248 L 672 1202 Q 672 1192 682 1192 Z"/></g><g transform="translate(-38,-70) scale(1,1)"><path fill="none" stroke="#000000" d="M 682 1192 L 782 1192 Q 792 1192 792 1202 L 792 1248 Q 792 1258 782 1258 L 682 1258 Q 672 1258 672 1248 L 672 1202 Q 672 1192 682 1192 Z" stroke-miterlimit="10"/></g><g transform="translate(-38,-70) scale(1,1)"><g><path fill="none" stroke="none"/><text fill="#000000" stroke="none" font-family="Arial" font-size="13px" font-style="normal" font-weight="bold" text-decoration="none" x="685.036865234375" y="1211.5">Wyświetla panel</text><text fill="#000000" stroke="none" font-family="Arial" font-size="13px" font-style="normal" font-weight="bold" text-decoration="none" x="684.306884765625" y="1224.5">do odzyskiwania</text><text fill="#000000" stroke="none" font-family="Arial" font-size="13px" font-style="normal" font-weight="bold" text-decoration="none" x="716.4609375" y="1237.5">hasła</text></g></g><g transform="translate(-38,-70) scale(1,1)"><path fill="none" stroke="#000000" d="M 423 1061 L 423 1217 M 423 1217 A 8 8 0 0 0 431 1225 L 672 1225" stroke-miterlimit="10"/></g><g transform="translate(-38,-70) scale(1,1)"><path fill="none" stroke="#000000" d="M 661.8373251423759 1229.2095177560159 L 672 1225 L 661.8373251423758 1220.7904822439841" stroke-miterlimit="10"/></g><g transform="translate(-38,-70) scale(1,1)"><path fill="#000000" stroke="none" d="M 403 1312 L 466 1312 Q 469 1312 469 1315 L 469 1315 Q 469 1318 466 1318 L 403 1318 Q 400 1318 400 1315 L 400 1315 Q 400 1312 403 1312 Z"/></g><g transform="translate(-38,-70) scale(1,1)"><path fill="none" stroke="#000000" d="M 732 1258 L 732 1272 M 732 1272 A 8 8 0 0 1 724 1280 L 464 1280 M 464 1280 A 8 8 0 0 0 456 1288 L 456 1312" stroke-miterlimit="10"/></g><g transform="translate(-38,-70) scale(1,1)"><path fill="none" stroke="#000000" d="M 451.790482243984 1301.837325142376 L 456 1312 L 460.209517756016 1301.837325142376" stroke-miterlimit="10"/></g><g transform="translate(-38,-70) scale(1,1)"><path fill="#ffffff" stroke="none" d="M 410 1360 L 462 1360 Q 472 1360 472 1370 L 472 1403 Q 472 1413 462 1413 L 410 1413 Q 400 1413 400 1403 L 400 1370 Q 400 1360 410 1360 Z"/></g><g transform="translate(-38,-70) scale(1,1)"><path fill="none" stroke="#000000" d="M 410 1360 L 462 1360 Q 472 1360 472 1370 L 472 1403 Q 472 1413 462 1413 L 410 1413 Q 400 1413 400 1403 L 400 1370 Q 400 1360 410 1360 Z" stroke-miterlimit="10"/></g><g transform="translate(-38,-70) scale(1,1)"><g><path fill="none" stroke="none"/><text fill="#000000" stroke="none" font-family="Arial" font-size="13px" font-style="normal" font-weight="bold" text-decoration="none" x="415.760498046875" y="1379.5">Podaje</text><text fill="#000000" stroke="none" font-family="Arial" font-size="13px" font-style="normal" font-weight="bold" text-decoration="none" x="420.46728515625" y="1392.5">email</text></g></g><g transform="translate(-38,-70) scale(1,1)"><path fill="none" stroke="#000000" d="M 434 1317 L 434 1360" stroke-miterlimit="10"/></g><g transform="translate(-38,-70) scale(1,1)"><path fill="none" stroke="#000000" d="M 429.790482243984 1349.837325142376 L 434 1360 L 438.209517756016 1349.837325142376" stroke-miterlimit="10"/></g><g transform="translate(-38,-70) scale(1,1)"><path fill="#ffffff" stroke="none" d="M 698 1416 L 766 1416 Q 776 1416 776 1426 L 776 1459 Q 776 1469 766 1469 L 698 1469 Q 688 1469 688 1459 L 688 1426 Q 688 1416 698 1416 Z"/></g><g transform="translate(-38,-70) scale(1,1)"><path fill="none" stroke="#000000" d="M 698 1416 L 766 1416 Q 776 1416 776 1426 L 776 1459 Q 776 1469 766 1469 L 698 1469 Q 688 1469 688 1459 L 688 1426 Q 688 1416 698 1416 Z" stroke-miterlimit="10"/></g><g transform="translate(-38,-70) scale(1,1)"><g><path fill="none" stroke="none"/><text fill="#000000" stroke="none" font-family="Arial" font-size="13px" font-style="normal" font-weight="bold" text-decoration="none" x="701.661376953125" y="1435.5">Weryfikuje</text><text fill="#000000" stroke="none" font-family="Arial" font-size="13px" font-style="normal" font-weight="bold" text-decoration="none" x="713.575927734375" y="1448.5">rekord</text></g></g><g transform="translate(-38,-70) scale(1,1)"><path fill="none" stroke="#000000" d="M 434 1413 L 434 1432 M 434 1432 A 8 8 0 0 0 442 1440 L 688 1440" stroke-miterlimit="10"/></g><g transform="translate(-38,-70) scale(1,1)"><path fill="none" stroke="#000000" d="M 677.8373251423759 1444.2095177560159 L 688 1440 L 677.8373251423758 1435.7904822439841" stroke-miterlimit="10"/></g><g transform="translate(-38,-70) scale(1,1)"><path fill="#ffffff" stroke="none" d="M 712 1540 L 732 1512 L 752 1540 L 732 1568 L 712 1540"/></g><g transform="translate(-38,-70) scale(1,1)"><path fill="none" stroke="#000000" d="M 712 1540 L 732 1512 L 752 1540 L 732 1568 L 712 1540 L 712 1540" stroke-miterlimit="10"/></g><g transform="translate(-38,-70) scale(1,1)"><path fill="none" stroke="#000000" d="M 732 1470 L 732 1511" stroke-miterlimit="10"/></g><g transform="translate(-38,-70) scale(1,1)"><path fill="none" stroke="#000000" d="M 727.790482243984 1500.837325142376 L 732 1511 L 736.209517756016 1500.837325142376" stroke-miterlimit="10"/></g><g transform="translate(-38,-70) scale(1,1)"><path fill="none" stroke="#000000" d="M 712 1540 L 344 1540 M 344 1540 A 8 8 0 0 1 336 1532 L 336 1288 M 336 1288 A 8 8 0 0 1 344 1280 L 408 1280 M 408 1280 A 8 8 0 0 1 416 1288 L 416 1312" stroke-miterlimit="10"/></g><g transform="translate(-38,-70) scale(1,1)"><path fill="none" stroke="#000000" d="M 411.790482243984 1301.837325142376 L 416 1312 L 420.209517756016 1301.837325142376" stroke-miterlimit="10"/></g><g transform="translate(-38,-70) scale(1,1)"><g><path fill="none" stroke="none"/><text fill="#000000" stroke="none" font-family="Arial" font-size="13px" font-style="normal" font-weight="normal" text-decoration="none" x="672" y="1532">[Błąd]</text></g></g><g transform="translate(-38,-70) scale(1,1)"><path fill="#ffffff" stroke="none" d="M 690 1624 L 774 1624 Q 784 1624 784 1634 L 784 1667 Q 784 1677 774 1677 L 690 1677 Q 680 1677 680 1667 L 680 1634 Q 680 1624 690 1624 Z"/></g><g transform="translate(-38,-70) scale(1,1)"><path fill="none" stroke="#000000" d="M 690 1624 L 774 1624 Q 784 1624 784 1634 L 784 1667 Q 784 1677 774 1677 L 690 1677 Q 680 1677 680 1667 L 680 1634 Q 680 1624 690 1624 Z" stroke-miterlimit="10"/></g><g transform="translate(-38,-70) scale(1,1)"><g><path fill="none" stroke="none"/><text fill="#000000" stroke="none" font-family="Arial" font-size="13px" font-style="normal" font-weight="bold" text-decoration="none" x="688.661376953125" y="1643.5">Wysyła maila z</text><text fill="#000000" stroke="none" font-family="Arial" font-size="13px" font-style="normal" font-weight="bold" text-decoration="none" x="711.04638671875" y="1656.5">hasłem</text></g></g><g transform="translate(-38,-70) scale(1,1)"><path fill="none" stroke="#000000" d="M 732 1569 L 732 1623" stroke-miterlimit="10"/></g><g transform="translate(-38,-70) scale(1,1)"><path fill="none" stroke="#000000" d="M 727.790482243984 1612.837325142376 L 732 1623 L 736.209517756016 1612.837325142376" stroke-miterlimit="10"/></g><g transform="translate(-38,-70) scale(1,1)"><g><path fill="none" stroke="none"/><text fill="#000000" stroke="none" font-family="Arial" font-size="13px" font-style="normal" font-weight="normal" text-decoration="none" x="735" y="1597">[Else]</text></g></g><g transform="translate(-38,-70) scale(1,1)"><path fill="#ffffff" stroke="none" d="M 418 1696 L 494 1696 Q 504 1696 504 1706 L 504 1739 Q 504 1749 494 1749 L 418 1749 Q 408 1749 408 1739 L 408 1706 Q 408 1696 418 1696 Z"/></g><g transform="translate(-38,-70) scale(1,1)"><path fill="none" stroke="#000000" d="M 418 1696 L 494 1696 Q 504 1696 504 1706 L 504 1739 Q 504 1749 494 1749 L 418 1749 Q 408 1749 408 1739 L 408 1706 Q 408 1696 418 1696 Z" stroke-miterlimit="10"/></g><g transform="translate(-38,-70) scale(1,1)"><g><path fill="none" stroke="none"/><text fill="#000000" stroke="none" font-family="Arial" font-size="13px" font-style="normal" font-weight="bold" text-decoration="none" x="425.655029296875" y="1715.5">Odzyskuje</text><text fill="#000000" stroke="none" font-family="Arial" font-size="13px" font-style="normal" font-weight="bold" text-decoration="none" x="441.5400390625" y="1728.5">dane</text></g></g><g transform="translate(-38,-70) scale(1,1)"><path fill="none" stroke="#000000" d="M 680 1650 L 464 1650 M 464 1650 A 8 8 0 0 0 456 1658 L 456 1696" stroke-miterlimit="10"/></g><g transform="translate(-38,-70) scale(1,1)"><path fill="none" stroke="#000000" d="M 451.790482243984 1685.837325142376 L 456 1696 L 460.209517756016 1685.837325142376" stroke-miterlimit="10"/></g><g transform="translate(-38,-70) scale(1,1)"><path fill="none" stroke="#000000" d="M 408 1722 L 224 1722 M 224 1722 A 8 8 0 0 1 216 1714 L 216 776 M 216 776 A 8 8 0 0 1 224 768 L 392 768 M 392 768 A 8 8 0 0 1 400 776 L 400 800" stroke-miterlimit="10"/></g><g transform="translate(-38,-70) scale(1,1)"><path fill="none" stroke="#000000" d="M 395.790482243984 789.8373251423759 L 400 800 L 404.209517756016 789.8373251423759" stroke-miterlimit="10"/></g><g transform="translate(-38,-70) scale(1,1)"><path fill="none" stroke="#000000" d="M 120 549 L 120 593 M 120 593 A 8 8 0 0 0 128 601 L 656 601" stroke-miterlimit="10"/></g><g transform="translate(-38,-70) scale(1,1)"><path fill="none" stroke="#000000" d="M 645.8373251423759 605.209517756016 L 656 601 L 645.8373251423758 596.790482243984" stroke-miterlimit="10"/></g></g></svg>