<svg version="1.1" xmlns="http://www.w3.org/2000/svg" xmlns:xlink="http://www.w3.org/1999/xlink" width="756" height="1252"><defs/><g><g transform="translate(-38,2) scale(1,1)"><path fill="#ffffff" stroke="none" d="M 82 112 L 206 112 Q 216 112 216 122 L 216 142 Q 216 152 206 152 L 82 152 Q 72 152 72 142 L 72 122 Q 72 112 82 112 Z"/></g><g transform="translate(-38,2) scale(1,1)"><path fill="none" stroke="#000000" d="M 82 112 L 206 112 Q 216 112 216 122 L 216 142 Q 216 152 206 152 L 82 152 Q 72 152 72 142 L 72 122 Q 72 112 82 112 Z" stroke-miterlimit="10"/></g><g transform="translate(-38,2) scale(1,1)"><g><path fill="none" stroke="none"/><text fill="#000000" stroke="none" font-family="Arial" font-size="13px" font-style="normal" font-weight="bold" text-decoration="none" x="87.63916015625" y="131.5">Chce założyć konto</text></g></g><g transform="translate(-38,2) scale(1,1)"><path fill="#000000" stroke="none" d="M 136 57.5 C 136 52.2532944 140.2532944 48 145.5 48 C 150.7467056 48 155 52.2532944 155 57.5 C 155 62.7467056 150.7467056 67 145.5 67 C 140.2532944 67 136 62.7467056 136 57.5 Z"/></g><g transform="translate(-38,2) scale(1,1)"><path fill="none" stroke="#000000" d="M 145 68 L 144 111" stroke-miterlimit="10"/></g><g transform="translate(-38,2) scale(1,1)"><path fill="none" stroke="#000000" d="M 140.02789749637546 100.7422028826507 L 144 111 L 148.44465728583253 100.9379414824055" stroke-miterlimit="10"/></g><g transform="translate(-38,2) scale(1,1)"><path fill="none" stroke="#000000" d="M 144 152 L 144 161 M 144 161 A 8 8 0 0 0 152 169 L 496 169" stroke-miterlimit="10"/></g><g transform="translate(-38,2) scale(1,1)"><path fill="none" stroke="#000000" d="M 485.83732514237585 173.209517756016 L 496 169 L 485.83732514237585 164.790482243984" stroke-miterlimit="10"/></g><g transform="translate(-38,2) scale(1,1)"><path fill="#ffffff" stroke="none" d="M 506 136 L 598 136 Q 608 136 608 146 L 608 192 Q 608 202 598 202 L 506 202 Q 496 202 496 192 L 496 146 Q 496 136 506 136 Z"/></g><g transform="translate(-38,2) scale(1,1)"><path fill="none" stroke="#000000" d="M 506 136 L 598 136 Q 608 136 608 146 L 608 192 Q 608 202 598 202 L 506 202 Q 496 202 496 192 L 496 146 Q 496 136 506 136 Z" stroke-miterlimit="10"/></g><g transform="translate(-38,2) scale(1,1)"><g><path fill="none" stroke="none"/><text fill="#000000" stroke="none" font-family="Arial" font-size="13px" font-style="normal" font-weight="bold" text-decoration="none" x="514.07275390625" y="155.5">Wyświetlenie</text><text fill="#000000" stroke="none" font-family="Arial" font-size="13px" font-style="normal" font-weight="bold" text-decoration="none" x="521.29638671875" y="168.5">formularza</text><text fill="#000000" stroke="none" font-family="Arial" font-size="13px" font-style="normal" font-weight="bold" text-decoration="none" x="524.187744140625" y="181.5">rejestracji</text></g></g><g transform="translate(-38,2) scale(1,1)"><path fill="#ffffff" stroke="none" d="M 120 268 L 144 240 L 168 268 L 144 296 L 120 268"/></g><g transform="translate(-38,2) scale(1,1)"><path fill="none" stroke="#000000" d="M 120 268 L 144 240 L 168 268 L 144 296 L 120 268 L 120 268" stroke-miterlimit="10"/></g><g transform="translate(-38,2) scale(1,1)"><path fill="none" stroke="#000000" d="M 552 202 L 552 208 M 552 208 A 8 8 0 0 1 544 216 L 152 216 M 152 216 A 8 8 0 0 0 144 224 L 144 240" stroke-miterlimit="10"/></g><g transform="translate(-38,2) scale(1,1)"><path fill="none" stroke="#000000" d="M 139.790482243984 229.83732514237585 L 144 240 L 148.209517756016 229.83732514237585" stroke-miterlimit="10"/></g><g transform="translate(-38,2) scale(1,1)"><path fill="#000000" stroke="none" d="M 523 344 L 586 344 Q 589 344 589 347 L 589 347 Q 589 350 586 350 L 523 350 Q 520 350 520 347 L 520 347 Q 520 344 523 344 Z"/></g><g transform="translate(-38,2) scale(1,1)"><path fill="#ffffff" stroke="none" d="M 528 420 L 552 392 L 576 420 L 552 448 L 528 420"/></g><g transform="translate(-38,2) scale(1,1)"><path fill="none" stroke="#000000" d="M 528 420 L 552 392 L 576 420 L 552 448 L 528 420 L 528 420" stroke-miterlimit="10"/></g><g transform="translate(-38,2) scale(1,1)"><path fill="none" stroke="#000000" d="M 554 350 L 553 391" stroke-miterlimit="10"/></g><g transform="translate(-38,2) scale(1,1)"><path fill="none" stroke="#000000" d="M 549.0395301973742 380.73770596101974 L 553 391 L 557.456062651372 380.94298724038555" stroke-miterlimit="10"/></g><g transform="translate(-38,2) scale(1,1)"><path fill="none" stroke="#000000" d="M 128 420.5 C 128 413.59644 133.59644 408 140.5 408 C 147.40356 408 153 413.59644 153 420.5 C 153 427.40356 147.40356 433 140.5 433 C 133.59644 433 128 427.40356 128 420.5 Z" stroke-miterlimit="10"/></g><g transform="translate(-38,2) scale(1,1)"><path fill="#000000" stroke="none" d="M 133 420.5 C 133 416.357864 136.357864 413 140.5 413 C 144.642136 413 148 416.357864 148 420.5 C 148 424.642136 144.642136 428 140.5 428 C 136.357864 428 133 424.642136 133 420.5 Z"/></g><g transform="translate(-38,2) scale(1,1)"><path fill="none" stroke="#000000" d="M 527 420 L 154 420" stroke-miterlimit="10"/></g><g transform="translate(-38,2) scale(1,1)"><path fill="none" stroke="#000000" d="M 164.16267485762415 415.790482243984 L 154 420 L 164.16267485762415 424.209517756016" stroke-miterlimit="10"/></g><g transform="translate(-38,2) scale(1,1)"><g><path fill="none" stroke="none"/><text fill="#000000" stroke="none" font-family="Arial" font-size="13px" font-style="normal" font-weight="normal" text-decoration="none" x="480" y="413">[Anuluj]</text></g></g><g transform="translate(-38,2) scale(1,1)"><path fill="none" stroke="#000000" d="M 168 268 L 568 268 M 568 268 A 8 8 0 0 1 576 276 L 576 344" stroke-miterlimit="10"/></g><g transform="translate(-38,2) scale(1,1)"><path fill="none" stroke="#000000" d="M 571.790482243984 333.83732514237585 L 576 344 L 580.209517756016 333.83732514237585" stroke-miterlimit="10"/></g><g transform="translate(-38,2) scale(1,1)"><g><path fill="none" stroke="none"/><text fill="#000000" stroke="none" font-family="Arial" font-size="13px" font-style="normal" font-weight="normal" text-decoration="none" x="176" y="261">[Rejestruje się]</text></g></g><g transform="translate(-38,2) scale(1,1)"><path fill="none" stroke="#000000" d="M 144 296 L 144 312 M 144 312 A 8 8 0 0 0 152 320 L 528 320 M 528 320 A 8 8 0 0 1 536 328 L 536 344" stroke-miterlimit="10"/></g><g transform="translate(-38,2) scale(1,1)"><path fill="none" stroke="#000000" d="M 531.790482243984 333.83732514237585 L 536 344 L 540.209517756016 333.83732514237585" stroke-miterlimit="10"/></g><g transform="translate(-38,2) scale(1,1)"><g><path fill="none" stroke="none"/><text fill="#000000" stroke="none" font-family="Arial" font-size="13px" font-style="normal" font-weight="normal" text-decoration="none" x="155" y="315">[Rezygnuje]</text></g></g><g transform="translate(-38,2) scale(1,1)"><path fill="#ffffff" stroke="none" d="M 98 480 L 206 480 Q 216 480 216 490 L 216 510 Q 216 520 206 520 L 98 520 Q 88 520 88 510 L 88 490 Q 88 480 98 480 Z"/></g><g transform="translate(-38,2) scale(1,1)"><path fill="none" stroke="#000000" d="M 98 480 L 206 480 Q 216 480 216 490 L 216 510 Q 216 520 206 520 L 98 520 Q 88 520 88 510 L 88 490 Q 88 480 98 480 Z" stroke-miterlimit="10"/></g><g transform="translate(-38,2) scale(1,1)"><g><path fill="none" stroke="none"/><text fill="#000000" stroke="none" font-family="Arial" font-size="13px" font-style="normal" font-weight="bold" text-decoration="none" x="101.41552734375" y="499.5">Wprowadza dane</text></g></g><g transform="translate(-38,2) scale(1,1)"><path fill="none" stroke="#000000" d="M 552 448 L 552 491 M 552 491 A 8 8 0 0 1 544 499 L 216 499" stroke-miterlimit="10"/></g><g transform="translate(-38,2) scale(1,1)"><path fill="none" stroke="#000000" d="M 226.16267485762415 494.790482243984 L 216 499 L 226.16267485762415 503.209517756016" stroke-miterlimit="10"/></g><g transform="translate(-38,2) scale(1,1)"><g><path fill="none" stroke="none"/><text fill="#000000" stroke="none" font-family="Arial" font-size="13px" font-style="normal" font-weight="normal" text-decoration="none" x="510" y="479">[Else]</text></g></g><g transform="translate(-38,2) scale(1,1)"><path fill="#000000" stroke="none" d="M 507 568 L 637 568 Q 640 568 640 571 L 640 571 Q 640 574 637 574 L 507 574 Q 504 574 504 571 L 504 571 Q 504 568 507 568 Z"/></g><g transform="translate(-38,2) scale(1,1)"><path fill="none" stroke="#000000" d="M 153 520 L 153 536 M 153 536 A 8 8 0 0 0 161 544 L 512 544 M 512 544 A 8 8 0 0 1 520 552 L 520 568" stroke-miterlimit="10"/></g><g transform="translate(-38,2) scale(1,1)"><path fill="none" stroke="#000000" d="M 515.790482243984 557.8373251423759 L 520 568 L 524.209517756016 557.8373251423759" stroke-miterlimit="10"/></g><g transform="translate(-38,2) scale(1,1)"><path fill="#ffffff" stroke="none" d="M 522 616 L 614 616 Q 624 616 624 626 L 624 659 Q 624 669 614 669 L 522 669 Q 512 669 512 659 L 512 626 Q 512 616 522 616 Z"/></g><g transform="translate(-38,2) scale(1,1)"><path fill="none" stroke="#000000" d="M 522 616 L 614 616 Q 624 616 624 626 L 624 659 Q 624 669 614 669 L 522 669 Q 512 669 512 659 L 512 626 Q 512 616 522 616 Z" stroke-miterlimit="10"/></g><g transform="translate(-38,2) scale(1,1)"><g><path fill="none" stroke="none"/><text fill="#000000" stroke="none" font-family="Arial" font-size="13px" font-style="normal" font-weight="bold" text-decoration="none" x="534.411376953125" y="635.5">Weryfikacja</text><text fill="#000000" stroke="none" font-family="Arial" font-size="13px" font-style="normal" font-weight="bold" text-decoration="none" x="541.266845703125" y="648.5">rekordów</text></g></g><g transform="translate(-38,2) scale(1,1)"><path fill="none" stroke="#000000" d="M 568 573 L 568 616" stroke-miterlimit="10"/></g><g transform="translate(-38,2) scale(1,1)"><path fill="none" stroke="#000000" d="M 563.790482243984 605.8373251423759 L 568 616 L 572.209517756016 605.8373251423759" stroke-miterlimit="10"/></g><g transform="translate(-38,2) scale(1,1)"><path fill="#ffffff" stroke="none" d="M 122 768 L 214 768 Q 224 768 224 778 L 224 798 Q 224 808 214 808 L 122 808 Q 112 808 112 798 L 112 778 Q 112 768 122 768 Z"/></g><g transform="translate(-38,2) scale(1,1)"><path fill="none" stroke="#000000" d="M 122 768 L 214 768 Q 224 768 224 778 L 224 798 Q 224 808 214 808 L 122 808 Q 112 808 112 798 L 112 778 Q 112 768 122 768 Z" stroke-miterlimit="10"/></g><g transform="translate(-38,2) scale(1,1)"><g><path fill="none" stroke="none"/><text fill="#000000" stroke="none" font-family="Arial" font-size="13px" font-style="normal" font-weight="bold" text-decoration="none" x="125.36279296875" y="787.5">Poprawia login</text></g></g><g transform="translate(-38,2) scale(1,1)"><path fill="#ffffff" stroke="none" d="M 122 832 L 214 832 Q 224 832 224 842 L 224 862 Q 224 872 214 872 L 122 872 Q 112 872 112 862 L 112 842 Q 112 832 122 832 Z"/></g><g transform="translate(-38,2) scale(1,1)"><path fill="none" stroke="#000000" d="M 122 832 L 214 832 Q 224 832 224 842 L 224 862 Q 224 872 214 872 L 122 872 Q 112 872 112 862 L 112 842 Q 112 832 122 832 Z" stroke-miterlimit="10"/></g><g transform="translate(-38,2) scale(1,1)"><g><path fill="none" stroke="none"/><text fill="#000000" stroke="none" font-family="Arial" font-size="13px" font-style="normal" font-weight="bold" text-decoration="none" x="125.0009765625" y="851.5">Koryguje błędy</text></g></g><g transform="translate(-38,2) scale(1,1)"><path fill="#ffffff" stroke="none" d="M 114 928 L 222 928 Q 232 928 232 938 L 232 971 Q 232 981 222 981 L 114 981 Q 104 981 104 971 L 104 938 Q 104 928 114 928 Z"/></g><g transform="translate(-38,2) scale(1,1)"><path fill="none" stroke="#000000" d="M 114 928 L 222 928 Q 232 928 232 938 L 232 971 Q 232 981 222 981 L 114 981 Q 104 981 104 971 L 104 938 Q 104 928 114 928 Z" stroke-miterlimit="10"/></g><g transform="translate(-38,2) scale(1,1)"><g><path fill="none" stroke="none"/><text fill="#000000" stroke="none" font-family="Arial" font-size="13px" font-style="normal" font-weight="bold" text-decoration="none" x="120.31640625" y="947.5">Naprawia format</text><text fill="#000000" stroke="none" font-family="Arial" font-size="13px" font-style="normal" font-weight="bold" text-decoration="none" x="152.46728515625" y="960.5">maila</text></g></g><g transform="translate(-38,2) scale(1,1)"><path fill="#ffffff" stroke="none" d="M 544 744 L 568 712 L 592 744 L 568 776 L 544 744"/></g><g transform="translate(-38,2) scale(1,1)"><path fill="none" stroke="#000000" d="M 544 744 L 568 712 L 592 744 L 568 776 L 544 744 L 544 744" stroke-miterlimit="10"/></g><g transform="translate(-38,2) scale(1,1)"><path fill="none" stroke="#000000" d="M 568 670 L 568 711" stroke-miterlimit="10"/></g><g transform="translate(-38,2) scale(1,1)"><path fill="none" stroke="#000000" d="M 563.790482243984 700.8373251423759 L 568 711 L 572.209517756016 700.8373251423759" stroke-miterlimit="10"/></g><g transform="translate(-38,2) scale(1,1)"><path fill="none" stroke="#000000" d="M 544 744 L 176 744 M 176 744 A 8 8 0 0 0 168 752 L 168 768" stroke-miterlimit="10"/></g><g transform="translate(-38,2) scale(1,1)"><path fill="none" stroke="#000000" d="M 163.790482243984 757.8373251423759 L 168 768 L 172.209517756016 757.8373251423759" stroke-miterlimit="10"/></g><g transform="translate(-38,2) scale(1,1)"><g><path fill="none" stroke="none"/><text fill="#000000" stroke="none" font-family="Arial" font-size="13px" font-style="normal" font-weight="normal" text-decoration="none" x="407" y="741">[Login jest już w bazie]</text></g></g><g transform="translate(-38,2) scale(1,1)"><path fill="none" stroke="#000000" d="M 568 776 L 568 843 M 568 843 A 8 8 0 0 1 560 851 L 224 851" stroke-miterlimit="10"/></g><g transform="translate(-38,2) scale(1,1)"><path fill="none" stroke="#000000" d="M 234.16267485762415 846.790482243984 L 224 851 L 234.16267485762415 855.209517756016" stroke-miterlimit="10"/></g><g transform="translate(-38,2) scale(1,1)"><g><path fill="none" stroke="none"/><text fill="#000000" stroke="none" font-family="Arial" font-size="13px" font-style="normal" font-weight="normal" text-decoration="none" x="416" y="844">[Hasła nie pokrywają się]</text></g></g><g transform="translate(-38,2) scale(1,1)"><path fill="#ffffff" stroke="none" d="M 616 896 L 640 864 L 664 896 L 640 928 L 616 896"/></g><g transform="translate(-38,2) scale(1,1)"><path fill="none" stroke="#000000" d="M 616 896 L 640 864 L 664 896 L 640 928 L 616 896 L 616 896" stroke-miterlimit="10"/></g><g transform="translate(-38,2) scale(1,1)"><path fill="none" stroke="#000000" d="M 592 744 L 632 744 M 632 744 A 8 8 0 0 1 640 752 L 640 864" stroke-miterlimit="10"/></g><g transform="translate(-38,2) scale(1,1)"><path fill="none" stroke="#000000" d="M 635.790482243984 853.8373251423759 L 640 864 L 644.209517756016 853.8373251423759" stroke-miterlimit="10"/></g><g transform="translate(-38,2) scale(1,1)"><g><path fill="none" stroke="none"/><text fill="#000000" stroke="none" font-family="Arial" font-size="13px" font-style="normal" font-weight="normal" text-decoration="none" x="599" y="740">[Else]</text></g></g><g transform="translate(-38,2) scale(1,1)"><path fill="none" stroke="#000000" d="M 616 896 L 176 896 M 176 896 A 8 8 0 0 0 168 904 L 168 928" stroke-miterlimit="10"/></g><g transform="translate(-38,2) scale(1,1)"><path fill="none" stroke="#000000" d="M 163.790482243984 917.8373251423759 L 168 928 L 172.209517756016 917.8373251423759" stroke-miterlimit="10"/></g><g transform="translate(-38,2) scale(1,1)"><g><path fill="none" stroke="none"/><text fill="#000000" stroke="none" font-family="Arial" font-size="13px" font-style="normal" font-weight="normal" text-decoration="none" x="496" y="893">[Niepoprawny email]</text></g></g><g transform="translate(-38,2) scale(1,1)"><path fill="#ffffff" stroke="none" d="M 122 1032 L 214 1032 Q 224 1032 224 1042 L 224 1075 Q 224 1085 214 1085 L 122 1085 Q 112 1085 112 1075 L 112 1042 Q 112 1032 122 1032 Z"/></g><g transform="translate(-38,2) scale(1,1)"><path fill="none" stroke="#000000" d="M 122 1032 L 214 1032 Q 224 1032 224 1042 L 224 1075 Q 224 1085 214 1085 L 122 1085 Q 112 1085 112 1075 L 112 1042 Q 112 1032 122 1032 Z" stroke-miterlimit="10"/></g><g transform="translate(-38,2) scale(1,1)"><g><path fill="none" stroke="none"/><text fill="#000000" stroke="none" font-family="Arial" font-size="13px" font-style="normal" font-weight="bold" text-decoration="none" x="139.0927734375" y="1051.5">Uzupełnia</text><text fill="#000000" stroke="none" font-family="Arial" font-size="13px" font-style="normal" font-weight="bold" text-decoration="none" x="124.99462890625" y="1064.5">potrzebne pola</text></g></g><g transform="translate(-38,2) scale(1,1)"><path fill="none" stroke="#000000" d="M 640 928 L 640 1048 M 640 1048 A 8 8 0 0 1 632 1056 L 224 1056" stroke-miterlimit="10"/></g><g transform="translate(-38,2) scale(1,1)"><path fill="none" stroke="#000000" d="M 234.16267485762415 1051.7904822439841 L 224 1056 L 234.16267485762415 1060.2095177560159" stroke-miterlimit="10"/></g><g transform="translate(-38,2) scale(1,1)"><g><path fill="none" stroke="none"/><text fill="#000000" stroke="none" font-family="Arial" font-size="13px" font-style="normal" font-weight="normal" text-decoration="none" x="382" y="1046">[Obowiązkowe pola nie zostały wypełnione]</text></g></g><g transform="translate(-38,2) scale(1,1)"><path fill="#ffffff" stroke="none" d="M 562 1128 L 638 1128 Q 648 1128 648 1138 L 648 1171 Q 648 1181 638 1181 L 562 1181 Q 552 1181 552 1171 L 552 1138 Q 552 1128 562 1128 Z"/></g><g transform="translate(-38,2) scale(1,1)"><path fill="none" stroke="#000000" d="M 562 1128 L 638 1128 Q 648 1128 648 1138 L 648 1171 Q 648 1181 638 1181 L 562 1181 Q 552 1181 552 1171 L 552 1138 Q 552 1128 562 1128 Z" stroke-miterlimit="10"/></g><g transform="translate(-38,2) scale(1,1)"><g><path fill="none" stroke="none"/><text fill="#000000" stroke="none" font-family="Arial" font-size="13px" font-style="normal" font-weight="bold" text-decoration="none" x="568.2109375" y="1147.5">Zatwierdza</text><text fill="#000000" stroke="none" font-family="Arial" font-size="13px" font-style="normal" font-weight="bold" text-decoration="none" x="570.016845703125" y="1160.5">rejestrację</text></g></g><g transform="translate(-38,2) scale(1,1)"><path fill="none" stroke="#000000" d="M 664 896 L 704 896 M 704 896 A 8 8 0 0 1 712 904 L 712 1145 M 712 1145 A 8 8 0 0 1 704 1153 L 648 1153" stroke-miterlimit="10"/></g><g transform="translate(-38,2) scale(1,1)"><path fill="none" stroke="#000000" d="M 658.1626748576241 1148.7904822439841 L 648 1153 L 658.1626748576241 1157.2095177560159" stroke-miterlimit="10"/></g><g transform="translate(-38,2) scale(1,1)"><g><path fill="none" stroke="none"/><text fill="#000000" stroke="none" font-family="Arial" font-size="13px" font-style="normal" font-weight="normal" text-decoration="none" x="670" y="888">[Else]</text></g></g><g transform="translate(-38,2) scale(1,1)"><path fill="none" stroke="#000000" d="M 152 1156.5 C 152 1149.59644 157.59644 1144 164.5 1144 C 171.40356 1144 177 1149.59644 177 1156.5 C 177 1163.40356 171.40356 1169 164.5 1169 C 157.59644 1169 152 1163.40356 152 1156.5 Z" stroke-miterlimit="10"/></g><g transform="translate(-38,2) scale(1,1)"><path fill="#000000" stroke="none" d="M 157 1156.5 C 157 1152.357864 160.357864 1149 164.5 1149 C 168.642136 1149 172 1152.357864 172 1156.5 C 172 1160.642136 168.642136 1164 164.5 1164 C 160.357864 1164 157 1160.642136 157 1156.5 Z"/></g><g transform="translate(-38,2) scale(1,1)"><path fill="none" stroke="#000000" d="M 551 1154 L 178 1156" stroke-miterlimit="10"/></g><g transform="translate(-38,2) scale(1,1)"><path fill="none" stroke="#000000" d="M 188.13995795449011 1151.7360519842318 L 178 1156 L 188.185099587143 1160.1549664739898" stroke-miterlimit="10"/></g><g transform="translate(-38,2) scale(1,1)"><path fill="none" stroke="#000000" d="M 224 788 L 256 788 M 256 788 A 8 8 0 0 0 264 780 L 264 520 M 264 520 A 8 8 0 0 1 272 512 L 536 512 M 536 512 A 8 8 0 0 1 544 520 L 544 568" stroke-miterlimit="10"/></g><g transform="translate(-38,2) scale(1,1)"><path fill="none" stroke="#000000" d="M 539.790482243984 557.8373251423759 L 544 568 L 548.209517756016 557.8373251423759" stroke-miterlimit="10"/></g><g transform="translate(-38,2) scale(1,1)"><path fill="none" stroke="#000000" d="M 232 954 L 720 954 M 720 954 A 8 8 0 0 0 728 946 L 728 520 M 728 520 A 8 8 0 0 0 720 512 L 600 512 M 600 512 A 8 8 0 0 0 592 520 L 592 568" stroke-miterlimit="10"/></g><g transform="translate(-38,2) scale(1,1)"><path fill="none" stroke="#000000" d="M 587.790482243984 557.8373251423759 L 592 568 L 596.209517756016 557.8373251423759" stroke-miterlimit="10"/></g><g transform="translate(-38,2) scale(1,1)"><path fill="none" stroke="#000000" d="M 168 832 L 168 824 M 168 824 A 8 8 0 0 1 176 816 L 664 816 M 664 816 A 8 8 0 0 0 672 808 L 672 552 M 672 552 A 8 8 0 0 0 664 544 L 576 544 M 576 544 A 8 8 0 0 0 568 552 L 568 568" stroke-miterlimit="10"/></g><g transform="translate(-38,2) scale(1,1)"><path fill="none" stroke="#000000" d="M 563.790482243984 557.8373251423759 L 568 568 L 572.209517756016 557.8373251423759" stroke-miterlimit="10"/></g><g transform="translate(-38,2) scale(1,1)"><path fill="none" stroke="#000000" d="M 112 1056 L 96 1056 M 96 1056 A 8 8 0 0 1 88 1048 L 88 536 M 88 536 A 8 8 0 0 1 96 528 L 616 528 M 616 528 A 8 8 0 0 1 624 536 L 624 568" stroke-miterlimit="10"/></g><g transform="translate(-38,2) scale(1,1)"><path fill="none" stroke="#000000" d="M 619.790482243984 557.8373251423759 L 624 568 L 628.209517756016 557.8373251423759" stroke-miterlimit="10"/></g><g transform="translate(-38,2) scale(1,1)"><rect fill="#ffffff" stroke="none" x="48" y="8" width="248" height="21"/></g><g transform="translate(-38,2) scale(1,1)"><path fill="none" stroke="#000000" d="M 48 8 L 296 8 L 296 29 L 48 29 L 48 8 Z Z" stroke-miterlimit="10" stroke-width="2"/></g><g transform="translate(-38,2) scale(1,1)"><path fill="none" stroke="#000000" d="M 48 1240 L 48 8 L 296 8 L 296 1240" stroke-miterlimit="10" stroke-width="2"/></g><g transform="translate(-38,2) scale(1,1)"><g><path fill="none" stroke="none"/><text fill="#000000" stroke="none" font-family="Arial" font-size="13px" font-style="normal" font-weight="normal" text-decoration="none" x="139.1318359375" y="25">Użytkownik</text></g></g><g transform="translate(-38,2) scale(1,1)"><rect fill="#ffffff" stroke="none" x="296" y="8" width="488" height="21"/></g><g transform="translate(-38,2) scale(1,1)"><path fill="none" stroke="#000000" d="M 296 8 L 784 8 L 784 29 L 296 29 L 296 8 Z Z" stroke-miterlimit="10" stroke-width="2"/></g><g transform="translate(-38,2) scale(1,1)"><path fill="none" stroke="#000000" d="M 296 1240 L 296 8 L 784 8 L 784 1240" stroke-miterlimit="10" stroke-width="2"/></g><g transform="translate(-38,2) scale(1,1)"><g><path fill="none" stroke="none"/><text fill="#000000" stroke="none" font-family="Arial" font-size="13px" font-style="normal" font-weight="normal" text-decoration="none" x="518.3291015625" y="25">System</text></g></g></g></svg>